M48
; DRILL file {KiCad (5.1.5)-3} date 03-Feb-20 10:04:13 PM
; FORMAT={-:-/ absolute / inch / decimal}
; #@! TF.CreationDate,2020-02-03T22:04:13-05:00
; #@! TF.GenerationSoftware,Kicad,Pcbnew,(5.1.5)-3
FMAT,2
INCH
T1C0.0157
T2C0.0394
T3C0.0472
T4C0.1230
T5C0.1575
%
G90
G05
T1
X5.315Y-3.1102
X5.4528Y-3.4646
X5.5906Y-3.6417
X5.6496Y-3.7795
X5.6693Y-4.4291
X5.7087Y-3.0315
X5.9646Y-3.6811
T2
X3.8189Y-3.063
X3.8189Y-3.4646
T3
X6.6732Y-2.8937
X6.4941Y-2.8937
X6.4252Y-3.1693
X6.5236Y-3.1693
X6.622Y-3.1693
X4.0157Y-3.8583
X4.0157Y-4.3622
X6.315Y-2.8937
T4
X6.3543Y-3.4449
X6.6929Y-3.4449
T5
X5.0669Y-3.1811
X5.0669Y-4.3622
T0
M30
