G04 #@! TF.GenerationSoftware,KiCad,Pcbnew,(5.1.5)-3*
G04 #@! TF.CreationDate,2020-02-03T22:04:10-05:00*
G04 #@! TF.ProjectId,punk,70756e6b-2e6b-4696-9361-645f70636258,rev?*
G04 #@! TF.SameCoordinates,Original*
G04 #@! TF.FileFunction,Copper,L2,Bot*
G04 #@! TF.FilePolarity,Positive*
%FSLAX46Y46*%
G04 Gerber Fmt 4.6, Leading zero omitted, Abs format (unit mm)*
G04 Created by KiCad (PCBNEW (5.1.5)-3) date 2020-02-03 22:04:10*
%MOMM*%
%LPD*%
G04 APERTURE LIST*
%ADD10R,2.500000X2.500000*%
%ADD11C,6.000000*%
%ADD12C,1.800000*%
%ADD13C,4.686000*%
%ADD14C,1.500000*%
%ADD15C,0.800000*%
%ADD16C,0.500000*%
%ADD17C,0.250000*%
%ADD18C,0.254000*%
G04 APERTURE END LIST*
D10*
X160400000Y-73500000D03*
X164950000Y-73500000D03*
X169500000Y-73500000D03*
D11*
X128700000Y-110800000D03*
X128700000Y-80800000D03*
D12*
X102000000Y-110800000D03*
X102000000Y-98000000D03*
D13*
X161400000Y-87500000D03*
X170000000Y-87500000D03*
D12*
X163200000Y-80500000D03*
X165700000Y-80500000D03*
X168200000Y-80500000D03*
D14*
X97000000Y-77800000D03*
X97000000Y-88000000D03*
D15*
X138500000Y-88000000D03*
X151500000Y-93500000D03*
X145000000Y-77000000D03*
X135000000Y-79000000D03*
X144000000Y-112500000D03*
X142000000Y-92500000D03*
X143500000Y-96000000D03*
D16*
X169500000Y-72000000D02*
X168500000Y-71000000D01*
X169500000Y-73500000D02*
X169500000Y-72000000D01*
X168500000Y-71000000D02*
X155000000Y-71000000D01*
X155000000Y-71000000D02*
X154000000Y-72000000D01*
D17*
X142000000Y-110500000D02*
X144000000Y-112500000D01*
X142000000Y-92500000D02*
X142000000Y-110500000D01*
X156500000Y-77500000D02*
X160500000Y-73500000D01*
X143500000Y-96000000D02*
X155000000Y-96000000D01*
X155000000Y-96000000D02*
X156500000Y-94500000D01*
X156500000Y-94500000D02*
X156500000Y-77500000D01*
D18*
G36*
X154873000Y-94873000D02*
G01*
X146627000Y-94873000D01*
X146627000Y-90500000D01*
X146624560Y-90475224D01*
X146617333Y-90451399D01*
X146605597Y-90429443D01*
X146589803Y-90410197D01*
X146570557Y-90394403D01*
X146548601Y-90382667D01*
X146524776Y-90375440D01*
X146500000Y-90373000D01*
X136000000Y-90373000D01*
X135975224Y-90375440D01*
X135951399Y-90382667D01*
X135929443Y-90394403D01*
X135910197Y-90410197D01*
X135894403Y-90429443D01*
X135882667Y-90451399D01*
X135875440Y-90475224D01*
X135873000Y-90500000D01*
X135873000Y-99873000D01*
X87078490Y-99873000D01*
X86674031Y-99064080D01*
X101115525Y-99064080D01*
X101199208Y-99318261D01*
X101471775Y-99449158D01*
X101764642Y-99524365D01*
X102066553Y-99540991D01*
X102365907Y-99498397D01*
X102651199Y-99398222D01*
X102800792Y-99318261D01*
X102884475Y-99064080D01*
X102000000Y-98179605D01*
X101115525Y-99064080D01*
X86674031Y-99064080D01*
X86175267Y-98066553D01*
X100459009Y-98066553D01*
X100501603Y-98365907D01*
X100601778Y-98651199D01*
X100681739Y-98800792D01*
X100935920Y-98884475D01*
X101820395Y-98000000D01*
X102179605Y-98000000D01*
X103064080Y-98884475D01*
X103318261Y-98800792D01*
X103449158Y-98528225D01*
X103524365Y-98235358D01*
X103540991Y-97933447D01*
X103498397Y-97634093D01*
X103398222Y-97348801D01*
X103318261Y-97199208D01*
X103064080Y-97115525D01*
X102179605Y-98000000D01*
X101820395Y-98000000D01*
X100935920Y-97115525D01*
X100681739Y-97199208D01*
X100550842Y-97471775D01*
X100475635Y-97764642D01*
X100459009Y-98066553D01*
X86175267Y-98066553D01*
X85609951Y-96935920D01*
X101115525Y-96935920D01*
X102000000Y-97820395D01*
X102884475Y-96935920D01*
X102800792Y-96681739D01*
X102528225Y-96550842D01*
X102235358Y-96475635D01*
X101933447Y-96459009D01*
X101634093Y-96501603D01*
X101348801Y-96601778D01*
X101199208Y-96681739D01*
X101115525Y-96935920D01*
X85609951Y-96935920D01*
X85127000Y-95970020D01*
X85127000Y-87863589D01*
X95615000Y-87863589D01*
X95615000Y-88136411D01*
X95668225Y-88403989D01*
X95772629Y-88656043D01*
X95924201Y-88882886D01*
X96117114Y-89075799D01*
X96343957Y-89227371D01*
X96596011Y-89331775D01*
X96863589Y-89385000D01*
X97136411Y-89385000D01*
X97403989Y-89331775D01*
X97656043Y-89227371D01*
X97882886Y-89075799D01*
X98075799Y-88882886D01*
X98227371Y-88656043D01*
X98331775Y-88403989D01*
X98385000Y-88136411D01*
X98385000Y-87863589D01*
X98331775Y-87596011D01*
X98227371Y-87343957D01*
X98075799Y-87117114D01*
X97882886Y-86924201D01*
X97656043Y-86772629D01*
X97403989Y-86668225D01*
X97136411Y-86615000D01*
X96863589Y-86615000D01*
X96596011Y-86668225D01*
X96343957Y-86772629D01*
X96117114Y-86924201D01*
X95924201Y-87117114D01*
X95772629Y-87343957D01*
X95668225Y-87596011D01*
X95615000Y-87863589D01*
X85127000Y-87863589D01*
X85127000Y-80441984D01*
X125065000Y-80441984D01*
X125065000Y-81158016D01*
X125204691Y-81860290D01*
X125478705Y-82521818D01*
X125876511Y-83117177D01*
X126382823Y-83623489D01*
X126978182Y-84021295D01*
X127639710Y-84295309D01*
X128341984Y-84435000D01*
X129058016Y-84435000D01*
X129760290Y-84295309D01*
X130421818Y-84021295D01*
X131017177Y-83623489D01*
X131523489Y-83117177D01*
X131921295Y-82521818D01*
X132195309Y-81860290D01*
X132335000Y-81158016D01*
X132335000Y-80441984D01*
X132195309Y-79739710D01*
X131921295Y-79078182D01*
X131523489Y-78482823D01*
X131017177Y-77976511D01*
X130421818Y-77578705D01*
X129760290Y-77304691D01*
X129058016Y-77165000D01*
X128341984Y-77165000D01*
X127639710Y-77304691D01*
X126978182Y-77578705D01*
X126382823Y-77976511D01*
X125876511Y-78482823D01*
X125478705Y-79078182D01*
X125204691Y-79739710D01*
X125065000Y-80441984D01*
X85127000Y-80441984D01*
X85127000Y-78756993D01*
X96222612Y-78756993D01*
X96288137Y-78995860D01*
X96535116Y-79111760D01*
X96799960Y-79177250D01*
X97072492Y-79189812D01*
X97342238Y-79148965D01*
X97598832Y-79056277D01*
X97711863Y-78995860D01*
X97777388Y-78756993D01*
X97000000Y-77979605D01*
X96222612Y-78756993D01*
X85127000Y-78756993D01*
X85127000Y-77872492D01*
X95610188Y-77872492D01*
X95651035Y-78142238D01*
X95743723Y-78398832D01*
X95804140Y-78511863D01*
X96043007Y-78577388D01*
X96820395Y-77800000D01*
X97179605Y-77800000D01*
X97956993Y-78577388D01*
X98195860Y-78511863D01*
X98311760Y-78264884D01*
X98377250Y-78000040D01*
X98389812Y-77727508D01*
X98348965Y-77457762D01*
X98256277Y-77201168D01*
X98195860Y-77088137D01*
X97956993Y-77022612D01*
X97179605Y-77800000D01*
X96820395Y-77800000D01*
X96043007Y-77022612D01*
X95804140Y-77088137D01*
X95688240Y-77335116D01*
X95622750Y-77599960D01*
X95610188Y-77872492D01*
X85127000Y-77872492D01*
X85127000Y-76843007D01*
X96222612Y-76843007D01*
X97000000Y-77620395D01*
X97777388Y-76843007D01*
X97711863Y-76604140D01*
X97464884Y-76488240D01*
X97200040Y-76422750D01*
X96927508Y-76410188D01*
X96657762Y-76451035D01*
X96401168Y-76543723D01*
X96288137Y-76604140D01*
X96222612Y-76843007D01*
X85127000Y-76843007D01*
X85127000Y-71127000D01*
X154873000Y-71127000D01*
X154873000Y-94873000D01*
G37*
X154873000Y-94873000D02*
X146627000Y-94873000D01*
X146627000Y-90500000D01*
X146624560Y-90475224D01*
X146617333Y-90451399D01*
X146605597Y-90429443D01*
X146589803Y-90410197D01*
X146570557Y-90394403D01*
X146548601Y-90382667D01*
X146524776Y-90375440D01*
X146500000Y-90373000D01*
X136000000Y-90373000D01*
X135975224Y-90375440D01*
X135951399Y-90382667D01*
X135929443Y-90394403D01*
X135910197Y-90410197D01*
X135894403Y-90429443D01*
X135882667Y-90451399D01*
X135875440Y-90475224D01*
X135873000Y-90500000D01*
X135873000Y-99873000D01*
X87078490Y-99873000D01*
X86674031Y-99064080D01*
X101115525Y-99064080D01*
X101199208Y-99318261D01*
X101471775Y-99449158D01*
X101764642Y-99524365D01*
X102066553Y-99540991D01*
X102365907Y-99498397D01*
X102651199Y-99398222D01*
X102800792Y-99318261D01*
X102884475Y-99064080D01*
X102000000Y-98179605D01*
X101115525Y-99064080D01*
X86674031Y-99064080D01*
X86175267Y-98066553D01*
X100459009Y-98066553D01*
X100501603Y-98365907D01*
X100601778Y-98651199D01*
X100681739Y-98800792D01*
X100935920Y-98884475D01*
X101820395Y-98000000D01*
X102179605Y-98000000D01*
X103064080Y-98884475D01*
X103318261Y-98800792D01*
X103449158Y-98528225D01*
X103524365Y-98235358D01*
X103540991Y-97933447D01*
X103498397Y-97634093D01*
X103398222Y-97348801D01*
X103318261Y-97199208D01*
X103064080Y-97115525D01*
X102179605Y-98000000D01*
X101820395Y-98000000D01*
X100935920Y-97115525D01*
X100681739Y-97199208D01*
X100550842Y-97471775D01*
X100475635Y-97764642D01*
X100459009Y-98066553D01*
X86175267Y-98066553D01*
X85609951Y-96935920D01*
X101115525Y-96935920D01*
X102000000Y-97820395D01*
X102884475Y-96935920D01*
X102800792Y-96681739D01*
X102528225Y-96550842D01*
X102235358Y-96475635D01*
X101933447Y-96459009D01*
X101634093Y-96501603D01*
X101348801Y-96601778D01*
X101199208Y-96681739D01*
X101115525Y-96935920D01*
X85609951Y-96935920D01*
X85127000Y-95970020D01*
X85127000Y-87863589D01*
X95615000Y-87863589D01*
X95615000Y-88136411D01*
X95668225Y-88403989D01*
X95772629Y-88656043D01*
X95924201Y-88882886D01*
X96117114Y-89075799D01*
X96343957Y-89227371D01*
X96596011Y-89331775D01*
X96863589Y-89385000D01*
X97136411Y-89385000D01*
X97403989Y-89331775D01*
X97656043Y-89227371D01*
X97882886Y-89075799D01*
X98075799Y-88882886D01*
X98227371Y-88656043D01*
X98331775Y-88403989D01*
X98385000Y-88136411D01*
X98385000Y-87863589D01*
X98331775Y-87596011D01*
X98227371Y-87343957D01*
X98075799Y-87117114D01*
X97882886Y-86924201D01*
X97656043Y-86772629D01*
X97403989Y-86668225D01*
X97136411Y-86615000D01*
X96863589Y-86615000D01*
X96596011Y-86668225D01*
X96343957Y-86772629D01*
X96117114Y-86924201D01*
X95924201Y-87117114D01*
X95772629Y-87343957D01*
X95668225Y-87596011D01*
X95615000Y-87863589D01*
X85127000Y-87863589D01*
X85127000Y-80441984D01*
X125065000Y-80441984D01*
X125065000Y-81158016D01*
X125204691Y-81860290D01*
X125478705Y-82521818D01*
X125876511Y-83117177D01*
X126382823Y-83623489D01*
X126978182Y-84021295D01*
X127639710Y-84295309D01*
X128341984Y-84435000D01*
X129058016Y-84435000D01*
X129760290Y-84295309D01*
X130421818Y-84021295D01*
X131017177Y-83623489D01*
X131523489Y-83117177D01*
X131921295Y-82521818D01*
X132195309Y-81860290D01*
X132335000Y-81158016D01*
X132335000Y-80441984D01*
X132195309Y-79739710D01*
X131921295Y-79078182D01*
X131523489Y-78482823D01*
X131017177Y-77976511D01*
X130421818Y-77578705D01*
X129760290Y-77304691D01*
X129058016Y-77165000D01*
X128341984Y-77165000D01*
X127639710Y-77304691D01*
X126978182Y-77578705D01*
X126382823Y-77976511D01*
X125876511Y-78482823D01*
X125478705Y-79078182D01*
X125204691Y-79739710D01*
X125065000Y-80441984D01*
X85127000Y-80441984D01*
X85127000Y-78756993D01*
X96222612Y-78756993D01*
X96288137Y-78995860D01*
X96535116Y-79111760D01*
X96799960Y-79177250D01*
X97072492Y-79189812D01*
X97342238Y-79148965D01*
X97598832Y-79056277D01*
X97711863Y-78995860D01*
X97777388Y-78756993D01*
X97000000Y-77979605D01*
X96222612Y-78756993D01*
X85127000Y-78756993D01*
X85127000Y-77872492D01*
X95610188Y-77872492D01*
X95651035Y-78142238D01*
X95743723Y-78398832D01*
X95804140Y-78511863D01*
X96043007Y-78577388D01*
X96820395Y-77800000D01*
X97179605Y-77800000D01*
X97956993Y-78577388D01*
X98195860Y-78511863D01*
X98311760Y-78264884D01*
X98377250Y-78000040D01*
X98389812Y-77727508D01*
X98348965Y-77457762D01*
X98256277Y-77201168D01*
X98195860Y-77088137D01*
X97956993Y-77022612D01*
X97179605Y-77800000D01*
X96820395Y-77800000D01*
X96043007Y-77022612D01*
X95804140Y-77088137D01*
X95688240Y-77335116D01*
X95622750Y-77599960D01*
X95610188Y-77872492D01*
X85127000Y-77872492D01*
X85127000Y-76843007D01*
X96222612Y-76843007D01*
X97000000Y-77620395D01*
X97777388Y-76843007D01*
X97711863Y-76604140D01*
X97464884Y-76488240D01*
X97200040Y-76422750D01*
X96927508Y-76410188D01*
X96657762Y-76451035D01*
X96401168Y-76543723D01*
X96288137Y-76604140D01*
X96222612Y-76843007D01*
X85127000Y-76843007D01*
X85127000Y-71127000D01*
X154873000Y-71127000D01*
X154873000Y-94873000D01*
M02*
