G04 #@! TF.GenerationSoftware,KiCad,Pcbnew,(5.1.5)-3*
G04 #@! TF.CreationDate,2020-02-03T22:04:10-05:00*
G04 #@! TF.ProjectId,punk,70756e6b-2e6b-4696-9361-645f70636258,rev?*
G04 #@! TF.SameCoordinates,Original*
G04 #@! TF.FileFunction,Legend,Bot*
G04 #@! TF.FilePolarity,Positive*
%FSLAX46Y46*%
G04 Gerber Fmt 4.6, Leading zero omitted, Abs format (unit mm)*
G04 Created by KiCad (PCBNEW (5.1.5)-3) date 2020-02-03 22:04:10*
%MOMM*%
%LPD*%
G04 APERTURE LIST*
%ADD10C,0.100000*%
%ADD11C,0.254000*%
G04 APERTURE END LIST*
D10*
X157700000Y-119950000D02*
X157700000Y-71650000D01*
X99700000Y-119950000D02*
X157700000Y-119950000D01*
X99700000Y-71650000D02*
X99700000Y-119950000D01*
X157700000Y-71650000D02*
X99700000Y-71650000D01*
D11*
X130725952Y-95709285D02*
X130544523Y-95769761D01*
X130484047Y-95830238D01*
X130423571Y-95951190D01*
X130423571Y-96132619D01*
X130484047Y-96253571D01*
X130544523Y-96314047D01*
X130665476Y-96374523D01*
X131149285Y-96374523D01*
X131149285Y-95104523D01*
X130725952Y-95104523D01*
X130605000Y-95165000D01*
X130544523Y-95225476D01*
X130484047Y-95346428D01*
X130484047Y-95467380D01*
X130544523Y-95588333D01*
X130605000Y-95648809D01*
X130725952Y-95709285D01*
X131149285Y-95709285D01*
X129939761Y-96011666D02*
X129335000Y-96011666D01*
X130060714Y-96374523D02*
X129637380Y-95104523D01*
X129214047Y-96374523D01*
X128972142Y-95104523D02*
X128246428Y-95104523D01*
X128609285Y-96374523D02*
X128609285Y-95104523D01*
X128004523Y-95104523D02*
X127278809Y-95104523D01*
X127641666Y-96374523D02*
X127641666Y-95104523D01*
X126190238Y-96374523D02*
X126915952Y-96374523D01*
X126553095Y-96374523D02*
X126553095Y-95104523D01*
X126674047Y-95285952D01*
X126795000Y-95406904D01*
X126915952Y-95467380D01*
M02*
