G04 #@! TF.GenerationSoftware,KiCad,Pcbnew,(5.1.5)-3*
G04 #@! TF.CreationDate,2020-02-03T22:04:10-05:00*
G04 #@! TF.ProjectId,punk,70756e6b-2e6b-4696-9361-645f70636258,rev?*
G04 #@! TF.SameCoordinates,Original*
G04 #@! TF.FileFunction,Copper,L1,Top*
G04 #@! TF.FilePolarity,Positive*
%FSLAX46Y46*%
G04 Gerber Fmt 4.6, Leading zero omitted, Abs format (unit mm)*
G04 Created by KiCad (PCBNEW (5.1.5)-3) date 2020-02-03 22:04:10*
%MOMM*%
%LPD*%
G04 APERTURE LIST*
%ADD10R,2.500000X2.500000*%
%ADD11C,6.000000*%
%ADD12C,1.800000*%
%ADD13R,1.000000X1.250000*%
%ADD14R,1.200000X2.500000*%
%ADD15R,0.600000X0.900000*%
%ADD16R,1.500000X1.500000*%
%ADD17R,1.525000X0.650000*%
%ADD18C,4.686000*%
%ADD19C,1.500000*%
%ADD20C,0.100000*%
%ADD21C,0.800000*%
%ADD22C,0.250000*%
%ADD23C,0.500000*%
%ADD24C,0.254000*%
G04 APERTURE END LIST*
D10*
X160400000Y-73500000D03*
X164950000Y-73500000D03*
X169500000Y-73500000D03*
D11*
X128700000Y-110800000D03*
X128700000Y-80800000D03*
D12*
X102000000Y-110800000D03*
X102000000Y-98000000D03*
D13*
X104000000Y-124000000D03*
X104000000Y-116250000D03*
X114000000Y-124000000D03*
X114000000Y-116250000D03*
X124000000Y-124000000D03*
X124000000Y-116250000D03*
X130000000Y-124000000D03*
X130000000Y-116250000D03*
X140000000Y-124000000D03*
X140000000Y-116250000D03*
X150000000Y-124000000D03*
X150000000Y-116250000D03*
X160000000Y-124000000D03*
X160000000Y-116250000D03*
X166000000Y-124000000D03*
X166000000Y-116250000D03*
X109000000Y-116000000D03*
X109000000Y-108250000D03*
X119000000Y-116000000D03*
X119000000Y-108250000D03*
X135000000Y-116000000D03*
X135000000Y-108250000D03*
X145000000Y-116000000D03*
X145000000Y-108250000D03*
X155000000Y-116000000D03*
X155000000Y-108250000D03*
D14*
X112500000Y-74250000D03*
X115000000Y-74250000D03*
X117500000Y-74250000D03*
X117500000Y-79750000D03*
X115000000Y-79750000D03*
X112500000Y-79750000D03*
D15*
X146000000Y-81400000D03*
X144100000Y-81400000D03*
X144100000Y-78600000D03*
X145050000Y-78600000D03*
X146000000Y-78600000D03*
D16*
X151000000Y-81350000D03*
X151000000Y-76650000D03*
D17*
X144000000Y-90095000D03*
X144000000Y-91365000D03*
X144000000Y-92635000D03*
X144000000Y-93905000D03*
X138576000Y-93905000D03*
X138576000Y-92635000D03*
X138576000Y-91365000D03*
X138576000Y-90095000D03*
D18*
X161400000Y-87500000D03*
X170000000Y-87500000D03*
D12*
X163200000Y-80500000D03*
X165700000Y-80500000D03*
X168200000Y-80500000D03*
D19*
X97000000Y-77800000D03*
X97000000Y-88000000D03*
G04 #@! TA.AperFunction,SMDPad,CuDef*
D20*
G36*
X106299505Y-102301204D02*
G01*
X106323773Y-102304804D01*
X106347572Y-102310765D01*
X106370671Y-102319030D01*
X106392850Y-102329520D01*
X106413893Y-102342132D01*
X106433599Y-102356747D01*
X106451777Y-102373223D01*
X106468253Y-102391401D01*
X106482868Y-102411107D01*
X106495480Y-102432150D01*
X106505970Y-102454329D01*
X106514235Y-102477428D01*
X106520196Y-102501227D01*
X106523796Y-102525495D01*
X106525000Y-102549999D01*
X106525000Y-103450001D01*
X106523796Y-103474505D01*
X106520196Y-103498773D01*
X106514235Y-103522572D01*
X106505970Y-103545671D01*
X106495480Y-103567850D01*
X106482868Y-103588893D01*
X106468253Y-103608599D01*
X106451777Y-103626777D01*
X106433599Y-103643253D01*
X106413893Y-103657868D01*
X106392850Y-103670480D01*
X106370671Y-103680970D01*
X106347572Y-103689235D01*
X106323773Y-103695196D01*
X106299505Y-103698796D01*
X106275001Y-103700000D01*
X105624999Y-103700000D01*
X105600495Y-103698796D01*
X105576227Y-103695196D01*
X105552428Y-103689235D01*
X105529329Y-103680970D01*
X105507150Y-103670480D01*
X105486107Y-103657868D01*
X105466401Y-103643253D01*
X105448223Y-103626777D01*
X105431747Y-103608599D01*
X105417132Y-103588893D01*
X105404520Y-103567850D01*
X105394030Y-103545671D01*
X105385765Y-103522572D01*
X105379804Y-103498773D01*
X105376204Y-103474505D01*
X105375000Y-103450001D01*
X105375000Y-102549999D01*
X105376204Y-102525495D01*
X105379804Y-102501227D01*
X105385765Y-102477428D01*
X105394030Y-102454329D01*
X105404520Y-102432150D01*
X105417132Y-102411107D01*
X105431747Y-102391401D01*
X105448223Y-102373223D01*
X105466401Y-102356747D01*
X105486107Y-102342132D01*
X105507150Y-102329520D01*
X105529329Y-102319030D01*
X105552428Y-102310765D01*
X105576227Y-102304804D01*
X105600495Y-102301204D01*
X105624999Y-102300000D01*
X106275001Y-102300000D01*
X106299505Y-102301204D01*
G37*
G04 #@! TD.AperFunction*
G04 #@! TA.AperFunction,SMDPad,CuDef*
G36*
X108349505Y-102301204D02*
G01*
X108373773Y-102304804D01*
X108397572Y-102310765D01*
X108420671Y-102319030D01*
X108442850Y-102329520D01*
X108463893Y-102342132D01*
X108483599Y-102356747D01*
X108501777Y-102373223D01*
X108518253Y-102391401D01*
X108532868Y-102411107D01*
X108545480Y-102432150D01*
X108555970Y-102454329D01*
X108564235Y-102477428D01*
X108570196Y-102501227D01*
X108573796Y-102525495D01*
X108575000Y-102549999D01*
X108575000Y-103450001D01*
X108573796Y-103474505D01*
X108570196Y-103498773D01*
X108564235Y-103522572D01*
X108555970Y-103545671D01*
X108545480Y-103567850D01*
X108532868Y-103588893D01*
X108518253Y-103608599D01*
X108501777Y-103626777D01*
X108483599Y-103643253D01*
X108463893Y-103657868D01*
X108442850Y-103670480D01*
X108420671Y-103680970D01*
X108397572Y-103689235D01*
X108373773Y-103695196D01*
X108349505Y-103698796D01*
X108325001Y-103700000D01*
X107674999Y-103700000D01*
X107650495Y-103698796D01*
X107626227Y-103695196D01*
X107602428Y-103689235D01*
X107579329Y-103680970D01*
X107557150Y-103670480D01*
X107536107Y-103657868D01*
X107516401Y-103643253D01*
X107498223Y-103626777D01*
X107481747Y-103608599D01*
X107467132Y-103588893D01*
X107454520Y-103567850D01*
X107444030Y-103545671D01*
X107435765Y-103522572D01*
X107429804Y-103498773D01*
X107426204Y-103474505D01*
X107425000Y-103450001D01*
X107425000Y-102549999D01*
X107426204Y-102525495D01*
X107429804Y-102501227D01*
X107435765Y-102477428D01*
X107444030Y-102454329D01*
X107454520Y-102432150D01*
X107467132Y-102411107D01*
X107481747Y-102391401D01*
X107498223Y-102373223D01*
X107516401Y-102356747D01*
X107536107Y-102342132D01*
X107557150Y-102329520D01*
X107579329Y-102319030D01*
X107602428Y-102310765D01*
X107626227Y-102304804D01*
X107650495Y-102301204D01*
X107674999Y-102300000D01*
X108325001Y-102300000D01*
X108349505Y-102301204D01*
G37*
G04 #@! TD.AperFunction*
G04 #@! TA.AperFunction,SMDPad,CuDef*
G36*
X111349505Y-102301204D02*
G01*
X111373773Y-102304804D01*
X111397572Y-102310765D01*
X111420671Y-102319030D01*
X111442850Y-102329520D01*
X111463893Y-102342132D01*
X111483599Y-102356747D01*
X111501777Y-102373223D01*
X111518253Y-102391401D01*
X111532868Y-102411107D01*
X111545480Y-102432150D01*
X111555970Y-102454329D01*
X111564235Y-102477428D01*
X111570196Y-102501227D01*
X111573796Y-102525495D01*
X111575000Y-102549999D01*
X111575000Y-103450001D01*
X111573796Y-103474505D01*
X111570196Y-103498773D01*
X111564235Y-103522572D01*
X111555970Y-103545671D01*
X111545480Y-103567850D01*
X111532868Y-103588893D01*
X111518253Y-103608599D01*
X111501777Y-103626777D01*
X111483599Y-103643253D01*
X111463893Y-103657868D01*
X111442850Y-103670480D01*
X111420671Y-103680970D01*
X111397572Y-103689235D01*
X111373773Y-103695196D01*
X111349505Y-103698796D01*
X111325001Y-103700000D01*
X110674999Y-103700000D01*
X110650495Y-103698796D01*
X110626227Y-103695196D01*
X110602428Y-103689235D01*
X110579329Y-103680970D01*
X110557150Y-103670480D01*
X110536107Y-103657868D01*
X110516401Y-103643253D01*
X110498223Y-103626777D01*
X110481747Y-103608599D01*
X110467132Y-103588893D01*
X110454520Y-103567850D01*
X110444030Y-103545671D01*
X110435765Y-103522572D01*
X110429804Y-103498773D01*
X110426204Y-103474505D01*
X110425000Y-103450001D01*
X110425000Y-102549999D01*
X110426204Y-102525495D01*
X110429804Y-102501227D01*
X110435765Y-102477428D01*
X110444030Y-102454329D01*
X110454520Y-102432150D01*
X110467132Y-102411107D01*
X110481747Y-102391401D01*
X110498223Y-102373223D01*
X110516401Y-102356747D01*
X110536107Y-102342132D01*
X110557150Y-102329520D01*
X110579329Y-102319030D01*
X110602428Y-102310765D01*
X110626227Y-102304804D01*
X110650495Y-102301204D01*
X110674999Y-102300000D01*
X111325001Y-102300000D01*
X111349505Y-102301204D01*
G37*
G04 #@! TD.AperFunction*
G04 #@! TA.AperFunction,SMDPad,CuDef*
G36*
X113399505Y-102301204D02*
G01*
X113423773Y-102304804D01*
X113447572Y-102310765D01*
X113470671Y-102319030D01*
X113492850Y-102329520D01*
X113513893Y-102342132D01*
X113533599Y-102356747D01*
X113551777Y-102373223D01*
X113568253Y-102391401D01*
X113582868Y-102411107D01*
X113595480Y-102432150D01*
X113605970Y-102454329D01*
X113614235Y-102477428D01*
X113620196Y-102501227D01*
X113623796Y-102525495D01*
X113625000Y-102549999D01*
X113625000Y-103450001D01*
X113623796Y-103474505D01*
X113620196Y-103498773D01*
X113614235Y-103522572D01*
X113605970Y-103545671D01*
X113595480Y-103567850D01*
X113582868Y-103588893D01*
X113568253Y-103608599D01*
X113551777Y-103626777D01*
X113533599Y-103643253D01*
X113513893Y-103657868D01*
X113492850Y-103670480D01*
X113470671Y-103680970D01*
X113447572Y-103689235D01*
X113423773Y-103695196D01*
X113399505Y-103698796D01*
X113375001Y-103700000D01*
X112724999Y-103700000D01*
X112700495Y-103698796D01*
X112676227Y-103695196D01*
X112652428Y-103689235D01*
X112629329Y-103680970D01*
X112607150Y-103670480D01*
X112586107Y-103657868D01*
X112566401Y-103643253D01*
X112548223Y-103626777D01*
X112531747Y-103608599D01*
X112517132Y-103588893D01*
X112504520Y-103567850D01*
X112494030Y-103545671D01*
X112485765Y-103522572D01*
X112479804Y-103498773D01*
X112476204Y-103474505D01*
X112475000Y-103450001D01*
X112475000Y-102549999D01*
X112476204Y-102525495D01*
X112479804Y-102501227D01*
X112485765Y-102477428D01*
X112494030Y-102454329D01*
X112504520Y-102432150D01*
X112517132Y-102411107D01*
X112531747Y-102391401D01*
X112548223Y-102373223D01*
X112566401Y-102356747D01*
X112586107Y-102342132D01*
X112607150Y-102329520D01*
X112629329Y-102319030D01*
X112652428Y-102310765D01*
X112676227Y-102304804D01*
X112700495Y-102301204D01*
X112724999Y-102300000D01*
X113375001Y-102300000D01*
X113399505Y-102301204D01*
G37*
G04 #@! TD.AperFunction*
G04 #@! TA.AperFunction,SMDPad,CuDef*
G36*
X116349505Y-102301204D02*
G01*
X116373773Y-102304804D01*
X116397572Y-102310765D01*
X116420671Y-102319030D01*
X116442850Y-102329520D01*
X116463893Y-102342132D01*
X116483599Y-102356747D01*
X116501777Y-102373223D01*
X116518253Y-102391401D01*
X116532868Y-102411107D01*
X116545480Y-102432150D01*
X116555970Y-102454329D01*
X116564235Y-102477428D01*
X116570196Y-102501227D01*
X116573796Y-102525495D01*
X116575000Y-102549999D01*
X116575000Y-103450001D01*
X116573796Y-103474505D01*
X116570196Y-103498773D01*
X116564235Y-103522572D01*
X116555970Y-103545671D01*
X116545480Y-103567850D01*
X116532868Y-103588893D01*
X116518253Y-103608599D01*
X116501777Y-103626777D01*
X116483599Y-103643253D01*
X116463893Y-103657868D01*
X116442850Y-103670480D01*
X116420671Y-103680970D01*
X116397572Y-103689235D01*
X116373773Y-103695196D01*
X116349505Y-103698796D01*
X116325001Y-103700000D01*
X115674999Y-103700000D01*
X115650495Y-103698796D01*
X115626227Y-103695196D01*
X115602428Y-103689235D01*
X115579329Y-103680970D01*
X115557150Y-103670480D01*
X115536107Y-103657868D01*
X115516401Y-103643253D01*
X115498223Y-103626777D01*
X115481747Y-103608599D01*
X115467132Y-103588893D01*
X115454520Y-103567850D01*
X115444030Y-103545671D01*
X115435765Y-103522572D01*
X115429804Y-103498773D01*
X115426204Y-103474505D01*
X115425000Y-103450001D01*
X115425000Y-102549999D01*
X115426204Y-102525495D01*
X115429804Y-102501227D01*
X115435765Y-102477428D01*
X115444030Y-102454329D01*
X115454520Y-102432150D01*
X115467132Y-102411107D01*
X115481747Y-102391401D01*
X115498223Y-102373223D01*
X115516401Y-102356747D01*
X115536107Y-102342132D01*
X115557150Y-102329520D01*
X115579329Y-102319030D01*
X115602428Y-102310765D01*
X115626227Y-102304804D01*
X115650495Y-102301204D01*
X115674999Y-102300000D01*
X116325001Y-102300000D01*
X116349505Y-102301204D01*
G37*
G04 #@! TD.AperFunction*
G04 #@! TA.AperFunction,SMDPad,CuDef*
G36*
X118399505Y-102301204D02*
G01*
X118423773Y-102304804D01*
X118447572Y-102310765D01*
X118470671Y-102319030D01*
X118492850Y-102329520D01*
X118513893Y-102342132D01*
X118533599Y-102356747D01*
X118551777Y-102373223D01*
X118568253Y-102391401D01*
X118582868Y-102411107D01*
X118595480Y-102432150D01*
X118605970Y-102454329D01*
X118614235Y-102477428D01*
X118620196Y-102501227D01*
X118623796Y-102525495D01*
X118625000Y-102549999D01*
X118625000Y-103450001D01*
X118623796Y-103474505D01*
X118620196Y-103498773D01*
X118614235Y-103522572D01*
X118605970Y-103545671D01*
X118595480Y-103567850D01*
X118582868Y-103588893D01*
X118568253Y-103608599D01*
X118551777Y-103626777D01*
X118533599Y-103643253D01*
X118513893Y-103657868D01*
X118492850Y-103670480D01*
X118470671Y-103680970D01*
X118447572Y-103689235D01*
X118423773Y-103695196D01*
X118399505Y-103698796D01*
X118375001Y-103700000D01*
X117724999Y-103700000D01*
X117700495Y-103698796D01*
X117676227Y-103695196D01*
X117652428Y-103689235D01*
X117629329Y-103680970D01*
X117607150Y-103670480D01*
X117586107Y-103657868D01*
X117566401Y-103643253D01*
X117548223Y-103626777D01*
X117531747Y-103608599D01*
X117517132Y-103588893D01*
X117504520Y-103567850D01*
X117494030Y-103545671D01*
X117485765Y-103522572D01*
X117479804Y-103498773D01*
X117476204Y-103474505D01*
X117475000Y-103450001D01*
X117475000Y-102549999D01*
X117476204Y-102525495D01*
X117479804Y-102501227D01*
X117485765Y-102477428D01*
X117494030Y-102454329D01*
X117504520Y-102432150D01*
X117517132Y-102411107D01*
X117531747Y-102391401D01*
X117548223Y-102373223D01*
X117566401Y-102356747D01*
X117586107Y-102342132D01*
X117607150Y-102329520D01*
X117629329Y-102319030D01*
X117652428Y-102310765D01*
X117676227Y-102304804D01*
X117700495Y-102301204D01*
X117724999Y-102300000D01*
X118375001Y-102300000D01*
X118399505Y-102301204D01*
G37*
G04 #@! TD.AperFunction*
G04 #@! TA.AperFunction,SMDPad,CuDef*
G36*
X121349505Y-102301204D02*
G01*
X121373773Y-102304804D01*
X121397572Y-102310765D01*
X121420671Y-102319030D01*
X121442850Y-102329520D01*
X121463893Y-102342132D01*
X121483599Y-102356747D01*
X121501777Y-102373223D01*
X121518253Y-102391401D01*
X121532868Y-102411107D01*
X121545480Y-102432150D01*
X121555970Y-102454329D01*
X121564235Y-102477428D01*
X121570196Y-102501227D01*
X121573796Y-102525495D01*
X121575000Y-102549999D01*
X121575000Y-103450001D01*
X121573796Y-103474505D01*
X121570196Y-103498773D01*
X121564235Y-103522572D01*
X121555970Y-103545671D01*
X121545480Y-103567850D01*
X121532868Y-103588893D01*
X121518253Y-103608599D01*
X121501777Y-103626777D01*
X121483599Y-103643253D01*
X121463893Y-103657868D01*
X121442850Y-103670480D01*
X121420671Y-103680970D01*
X121397572Y-103689235D01*
X121373773Y-103695196D01*
X121349505Y-103698796D01*
X121325001Y-103700000D01*
X120674999Y-103700000D01*
X120650495Y-103698796D01*
X120626227Y-103695196D01*
X120602428Y-103689235D01*
X120579329Y-103680970D01*
X120557150Y-103670480D01*
X120536107Y-103657868D01*
X120516401Y-103643253D01*
X120498223Y-103626777D01*
X120481747Y-103608599D01*
X120467132Y-103588893D01*
X120454520Y-103567850D01*
X120444030Y-103545671D01*
X120435765Y-103522572D01*
X120429804Y-103498773D01*
X120426204Y-103474505D01*
X120425000Y-103450001D01*
X120425000Y-102549999D01*
X120426204Y-102525495D01*
X120429804Y-102501227D01*
X120435765Y-102477428D01*
X120444030Y-102454329D01*
X120454520Y-102432150D01*
X120467132Y-102411107D01*
X120481747Y-102391401D01*
X120498223Y-102373223D01*
X120516401Y-102356747D01*
X120536107Y-102342132D01*
X120557150Y-102329520D01*
X120579329Y-102319030D01*
X120602428Y-102310765D01*
X120626227Y-102304804D01*
X120650495Y-102301204D01*
X120674999Y-102300000D01*
X121325001Y-102300000D01*
X121349505Y-102301204D01*
G37*
G04 #@! TD.AperFunction*
G04 #@! TA.AperFunction,SMDPad,CuDef*
G36*
X123399505Y-102301204D02*
G01*
X123423773Y-102304804D01*
X123447572Y-102310765D01*
X123470671Y-102319030D01*
X123492850Y-102329520D01*
X123513893Y-102342132D01*
X123533599Y-102356747D01*
X123551777Y-102373223D01*
X123568253Y-102391401D01*
X123582868Y-102411107D01*
X123595480Y-102432150D01*
X123605970Y-102454329D01*
X123614235Y-102477428D01*
X123620196Y-102501227D01*
X123623796Y-102525495D01*
X123625000Y-102549999D01*
X123625000Y-103450001D01*
X123623796Y-103474505D01*
X123620196Y-103498773D01*
X123614235Y-103522572D01*
X123605970Y-103545671D01*
X123595480Y-103567850D01*
X123582868Y-103588893D01*
X123568253Y-103608599D01*
X123551777Y-103626777D01*
X123533599Y-103643253D01*
X123513893Y-103657868D01*
X123492850Y-103670480D01*
X123470671Y-103680970D01*
X123447572Y-103689235D01*
X123423773Y-103695196D01*
X123399505Y-103698796D01*
X123375001Y-103700000D01*
X122724999Y-103700000D01*
X122700495Y-103698796D01*
X122676227Y-103695196D01*
X122652428Y-103689235D01*
X122629329Y-103680970D01*
X122607150Y-103670480D01*
X122586107Y-103657868D01*
X122566401Y-103643253D01*
X122548223Y-103626777D01*
X122531747Y-103608599D01*
X122517132Y-103588893D01*
X122504520Y-103567850D01*
X122494030Y-103545671D01*
X122485765Y-103522572D01*
X122479804Y-103498773D01*
X122476204Y-103474505D01*
X122475000Y-103450001D01*
X122475000Y-102549999D01*
X122476204Y-102525495D01*
X122479804Y-102501227D01*
X122485765Y-102477428D01*
X122494030Y-102454329D01*
X122504520Y-102432150D01*
X122517132Y-102411107D01*
X122531747Y-102391401D01*
X122548223Y-102373223D01*
X122566401Y-102356747D01*
X122586107Y-102342132D01*
X122607150Y-102329520D01*
X122629329Y-102319030D01*
X122652428Y-102310765D01*
X122676227Y-102304804D01*
X122700495Y-102301204D01*
X122724999Y-102300000D01*
X123375001Y-102300000D01*
X123399505Y-102301204D01*
G37*
G04 #@! TD.AperFunction*
G04 #@! TA.AperFunction,SMDPad,CuDef*
G36*
X126299505Y-102301204D02*
G01*
X126323773Y-102304804D01*
X126347572Y-102310765D01*
X126370671Y-102319030D01*
X126392850Y-102329520D01*
X126413893Y-102342132D01*
X126433599Y-102356747D01*
X126451777Y-102373223D01*
X126468253Y-102391401D01*
X126482868Y-102411107D01*
X126495480Y-102432150D01*
X126505970Y-102454329D01*
X126514235Y-102477428D01*
X126520196Y-102501227D01*
X126523796Y-102525495D01*
X126525000Y-102549999D01*
X126525000Y-103450001D01*
X126523796Y-103474505D01*
X126520196Y-103498773D01*
X126514235Y-103522572D01*
X126505970Y-103545671D01*
X126495480Y-103567850D01*
X126482868Y-103588893D01*
X126468253Y-103608599D01*
X126451777Y-103626777D01*
X126433599Y-103643253D01*
X126413893Y-103657868D01*
X126392850Y-103670480D01*
X126370671Y-103680970D01*
X126347572Y-103689235D01*
X126323773Y-103695196D01*
X126299505Y-103698796D01*
X126275001Y-103700000D01*
X125624999Y-103700000D01*
X125600495Y-103698796D01*
X125576227Y-103695196D01*
X125552428Y-103689235D01*
X125529329Y-103680970D01*
X125507150Y-103670480D01*
X125486107Y-103657868D01*
X125466401Y-103643253D01*
X125448223Y-103626777D01*
X125431747Y-103608599D01*
X125417132Y-103588893D01*
X125404520Y-103567850D01*
X125394030Y-103545671D01*
X125385765Y-103522572D01*
X125379804Y-103498773D01*
X125376204Y-103474505D01*
X125375000Y-103450001D01*
X125375000Y-102549999D01*
X125376204Y-102525495D01*
X125379804Y-102501227D01*
X125385765Y-102477428D01*
X125394030Y-102454329D01*
X125404520Y-102432150D01*
X125417132Y-102411107D01*
X125431747Y-102391401D01*
X125448223Y-102373223D01*
X125466401Y-102356747D01*
X125486107Y-102342132D01*
X125507150Y-102329520D01*
X125529329Y-102319030D01*
X125552428Y-102310765D01*
X125576227Y-102304804D01*
X125600495Y-102301204D01*
X125624999Y-102300000D01*
X126275001Y-102300000D01*
X126299505Y-102301204D01*
G37*
G04 #@! TD.AperFunction*
G04 #@! TA.AperFunction,SMDPad,CuDef*
G36*
X128349505Y-102301204D02*
G01*
X128373773Y-102304804D01*
X128397572Y-102310765D01*
X128420671Y-102319030D01*
X128442850Y-102329520D01*
X128463893Y-102342132D01*
X128483599Y-102356747D01*
X128501777Y-102373223D01*
X128518253Y-102391401D01*
X128532868Y-102411107D01*
X128545480Y-102432150D01*
X128555970Y-102454329D01*
X128564235Y-102477428D01*
X128570196Y-102501227D01*
X128573796Y-102525495D01*
X128575000Y-102549999D01*
X128575000Y-103450001D01*
X128573796Y-103474505D01*
X128570196Y-103498773D01*
X128564235Y-103522572D01*
X128555970Y-103545671D01*
X128545480Y-103567850D01*
X128532868Y-103588893D01*
X128518253Y-103608599D01*
X128501777Y-103626777D01*
X128483599Y-103643253D01*
X128463893Y-103657868D01*
X128442850Y-103670480D01*
X128420671Y-103680970D01*
X128397572Y-103689235D01*
X128373773Y-103695196D01*
X128349505Y-103698796D01*
X128325001Y-103700000D01*
X127674999Y-103700000D01*
X127650495Y-103698796D01*
X127626227Y-103695196D01*
X127602428Y-103689235D01*
X127579329Y-103680970D01*
X127557150Y-103670480D01*
X127536107Y-103657868D01*
X127516401Y-103643253D01*
X127498223Y-103626777D01*
X127481747Y-103608599D01*
X127467132Y-103588893D01*
X127454520Y-103567850D01*
X127444030Y-103545671D01*
X127435765Y-103522572D01*
X127429804Y-103498773D01*
X127426204Y-103474505D01*
X127425000Y-103450001D01*
X127425000Y-102549999D01*
X127426204Y-102525495D01*
X127429804Y-102501227D01*
X127435765Y-102477428D01*
X127444030Y-102454329D01*
X127454520Y-102432150D01*
X127467132Y-102411107D01*
X127481747Y-102391401D01*
X127498223Y-102373223D01*
X127516401Y-102356747D01*
X127536107Y-102342132D01*
X127557150Y-102329520D01*
X127579329Y-102319030D01*
X127602428Y-102310765D01*
X127626227Y-102304804D01*
X127650495Y-102301204D01*
X127674999Y-102300000D01*
X128325001Y-102300000D01*
X128349505Y-102301204D01*
G37*
G04 #@! TD.AperFunction*
G04 #@! TA.AperFunction,SMDPad,CuDef*
G36*
X131349505Y-102301204D02*
G01*
X131373773Y-102304804D01*
X131397572Y-102310765D01*
X131420671Y-102319030D01*
X131442850Y-102329520D01*
X131463893Y-102342132D01*
X131483599Y-102356747D01*
X131501777Y-102373223D01*
X131518253Y-102391401D01*
X131532868Y-102411107D01*
X131545480Y-102432150D01*
X131555970Y-102454329D01*
X131564235Y-102477428D01*
X131570196Y-102501227D01*
X131573796Y-102525495D01*
X131575000Y-102549999D01*
X131575000Y-103450001D01*
X131573796Y-103474505D01*
X131570196Y-103498773D01*
X131564235Y-103522572D01*
X131555970Y-103545671D01*
X131545480Y-103567850D01*
X131532868Y-103588893D01*
X131518253Y-103608599D01*
X131501777Y-103626777D01*
X131483599Y-103643253D01*
X131463893Y-103657868D01*
X131442850Y-103670480D01*
X131420671Y-103680970D01*
X131397572Y-103689235D01*
X131373773Y-103695196D01*
X131349505Y-103698796D01*
X131325001Y-103700000D01*
X130674999Y-103700000D01*
X130650495Y-103698796D01*
X130626227Y-103695196D01*
X130602428Y-103689235D01*
X130579329Y-103680970D01*
X130557150Y-103670480D01*
X130536107Y-103657868D01*
X130516401Y-103643253D01*
X130498223Y-103626777D01*
X130481747Y-103608599D01*
X130467132Y-103588893D01*
X130454520Y-103567850D01*
X130444030Y-103545671D01*
X130435765Y-103522572D01*
X130429804Y-103498773D01*
X130426204Y-103474505D01*
X130425000Y-103450001D01*
X130425000Y-102549999D01*
X130426204Y-102525495D01*
X130429804Y-102501227D01*
X130435765Y-102477428D01*
X130444030Y-102454329D01*
X130454520Y-102432150D01*
X130467132Y-102411107D01*
X130481747Y-102391401D01*
X130498223Y-102373223D01*
X130516401Y-102356747D01*
X130536107Y-102342132D01*
X130557150Y-102329520D01*
X130579329Y-102319030D01*
X130602428Y-102310765D01*
X130626227Y-102304804D01*
X130650495Y-102301204D01*
X130674999Y-102300000D01*
X131325001Y-102300000D01*
X131349505Y-102301204D01*
G37*
G04 #@! TD.AperFunction*
G04 #@! TA.AperFunction,SMDPad,CuDef*
G36*
X133399505Y-102301204D02*
G01*
X133423773Y-102304804D01*
X133447572Y-102310765D01*
X133470671Y-102319030D01*
X133492850Y-102329520D01*
X133513893Y-102342132D01*
X133533599Y-102356747D01*
X133551777Y-102373223D01*
X133568253Y-102391401D01*
X133582868Y-102411107D01*
X133595480Y-102432150D01*
X133605970Y-102454329D01*
X133614235Y-102477428D01*
X133620196Y-102501227D01*
X133623796Y-102525495D01*
X133625000Y-102549999D01*
X133625000Y-103450001D01*
X133623796Y-103474505D01*
X133620196Y-103498773D01*
X133614235Y-103522572D01*
X133605970Y-103545671D01*
X133595480Y-103567850D01*
X133582868Y-103588893D01*
X133568253Y-103608599D01*
X133551777Y-103626777D01*
X133533599Y-103643253D01*
X133513893Y-103657868D01*
X133492850Y-103670480D01*
X133470671Y-103680970D01*
X133447572Y-103689235D01*
X133423773Y-103695196D01*
X133399505Y-103698796D01*
X133375001Y-103700000D01*
X132724999Y-103700000D01*
X132700495Y-103698796D01*
X132676227Y-103695196D01*
X132652428Y-103689235D01*
X132629329Y-103680970D01*
X132607150Y-103670480D01*
X132586107Y-103657868D01*
X132566401Y-103643253D01*
X132548223Y-103626777D01*
X132531747Y-103608599D01*
X132517132Y-103588893D01*
X132504520Y-103567850D01*
X132494030Y-103545671D01*
X132485765Y-103522572D01*
X132479804Y-103498773D01*
X132476204Y-103474505D01*
X132475000Y-103450001D01*
X132475000Y-102549999D01*
X132476204Y-102525495D01*
X132479804Y-102501227D01*
X132485765Y-102477428D01*
X132494030Y-102454329D01*
X132504520Y-102432150D01*
X132517132Y-102411107D01*
X132531747Y-102391401D01*
X132548223Y-102373223D01*
X132566401Y-102356747D01*
X132586107Y-102342132D01*
X132607150Y-102329520D01*
X132629329Y-102319030D01*
X132652428Y-102310765D01*
X132676227Y-102304804D01*
X132700495Y-102301204D01*
X132724999Y-102300000D01*
X133375001Y-102300000D01*
X133399505Y-102301204D01*
G37*
G04 #@! TD.AperFunction*
G04 #@! TA.AperFunction,SMDPad,CuDef*
G36*
X136299505Y-102301204D02*
G01*
X136323773Y-102304804D01*
X136347572Y-102310765D01*
X136370671Y-102319030D01*
X136392850Y-102329520D01*
X136413893Y-102342132D01*
X136433599Y-102356747D01*
X136451777Y-102373223D01*
X136468253Y-102391401D01*
X136482868Y-102411107D01*
X136495480Y-102432150D01*
X136505970Y-102454329D01*
X136514235Y-102477428D01*
X136520196Y-102501227D01*
X136523796Y-102525495D01*
X136525000Y-102549999D01*
X136525000Y-103450001D01*
X136523796Y-103474505D01*
X136520196Y-103498773D01*
X136514235Y-103522572D01*
X136505970Y-103545671D01*
X136495480Y-103567850D01*
X136482868Y-103588893D01*
X136468253Y-103608599D01*
X136451777Y-103626777D01*
X136433599Y-103643253D01*
X136413893Y-103657868D01*
X136392850Y-103670480D01*
X136370671Y-103680970D01*
X136347572Y-103689235D01*
X136323773Y-103695196D01*
X136299505Y-103698796D01*
X136275001Y-103700000D01*
X135624999Y-103700000D01*
X135600495Y-103698796D01*
X135576227Y-103695196D01*
X135552428Y-103689235D01*
X135529329Y-103680970D01*
X135507150Y-103670480D01*
X135486107Y-103657868D01*
X135466401Y-103643253D01*
X135448223Y-103626777D01*
X135431747Y-103608599D01*
X135417132Y-103588893D01*
X135404520Y-103567850D01*
X135394030Y-103545671D01*
X135385765Y-103522572D01*
X135379804Y-103498773D01*
X135376204Y-103474505D01*
X135375000Y-103450001D01*
X135375000Y-102549999D01*
X135376204Y-102525495D01*
X135379804Y-102501227D01*
X135385765Y-102477428D01*
X135394030Y-102454329D01*
X135404520Y-102432150D01*
X135417132Y-102411107D01*
X135431747Y-102391401D01*
X135448223Y-102373223D01*
X135466401Y-102356747D01*
X135486107Y-102342132D01*
X135507150Y-102329520D01*
X135529329Y-102319030D01*
X135552428Y-102310765D01*
X135576227Y-102304804D01*
X135600495Y-102301204D01*
X135624999Y-102300000D01*
X136275001Y-102300000D01*
X136299505Y-102301204D01*
G37*
G04 #@! TD.AperFunction*
G04 #@! TA.AperFunction,SMDPad,CuDef*
G36*
X138349505Y-102301204D02*
G01*
X138373773Y-102304804D01*
X138397572Y-102310765D01*
X138420671Y-102319030D01*
X138442850Y-102329520D01*
X138463893Y-102342132D01*
X138483599Y-102356747D01*
X138501777Y-102373223D01*
X138518253Y-102391401D01*
X138532868Y-102411107D01*
X138545480Y-102432150D01*
X138555970Y-102454329D01*
X138564235Y-102477428D01*
X138570196Y-102501227D01*
X138573796Y-102525495D01*
X138575000Y-102549999D01*
X138575000Y-103450001D01*
X138573796Y-103474505D01*
X138570196Y-103498773D01*
X138564235Y-103522572D01*
X138555970Y-103545671D01*
X138545480Y-103567850D01*
X138532868Y-103588893D01*
X138518253Y-103608599D01*
X138501777Y-103626777D01*
X138483599Y-103643253D01*
X138463893Y-103657868D01*
X138442850Y-103670480D01*
X138420671Y-103680970D01*
X138397572Y-103689235D01*
X138373773Y-103695196D01*
X138349505Y-103698796D01*
X138325001Y-103700000D01*
X137674999Y-103700000D01*
X137650495Y-103698796D01*
X137626227Y-103695196D01*
X137602428Y-103689235D01*
X137579329Y-103680970D01*
X137557150Y-103670480D01*
X137536107Y-103657868D01*
X137516401Y-103643253D01*
X137498223Y-103626777D01*
X137481747Y-103608599D01*
X137467132Y-103588893D01*
X137454520Y-103567850D01*
X137444030Y-103545671D01*
X137435765Y-103522572D01*
X137429804Y-103498773D01*
X137426204Y-103474505D01*
X137425000Y-103450001D01*
X137425000Y-102549999D01*
X137426204Y-102525495D01*
X137429804Y-102501227D01*
X137435765Y-102477428D01*
X137444030Y-102454329D01*
X137454520Y-102432150D01*
X137467132Y-102411107D01*
X137481747Y-102391401D01*
X137498223Y-102373223D01*
X137516401Y-102356747D01*
X137536107Y-102342132D01*
X137557150Y-102329520D01*
X137579329Y-102319030D01*
X137602428Y-102310765D01*
X137626227Y-102304804D01*
X137650495Y-102301204D01*
X137674999Y-102300000D01*
X138325001Y-102300000D01*
X138349505Y-102301204D01*
G37*
G04 #@! TD.AperFunction*
G04 #@! TA.AperFunction,SMDPad,CuDef*
G36*
X141349505Y-102301204D02*
G01*
X141373773Y-102304804D01*
X141397572Y-102310765D01*
X141420671Y-102319030D01*
X141442850Y-102329520D01*
X141463893Y-102342132D01*
X141483599Y-102356747D01*
X141501777Y-102373223D01*
X141518253Y-102391401D01*
X141532868Y-102411107D01*
X141545480Y-102432150D01*
X141555970Y-102454329D01*
X141564235Y-102477428D01*
X141570196Y-102501227D01*
X141573796Y-102525495D01*
X141575000Y-102549999D01*
X141575000Y-103450001D01*
X141573796Y-103474505D01*
X141570196Y-103498773D01*
X141564235Y-103522572D01*
X141555970Y-103545671D01*
X141545480Y-103567850D01*
X141532868Y-103588893D01*
X141518253Y-103608599D01*
X141501777Y-103626777D01*
X141483599Y-103643253D01*
X141463893Y-103657868D01*
X141442850Y-103670480D01*
X141420671Y-103680970D01*
X141397572Y-103689235D01*
X141373773Y-103695196D01*
X141349505Y-103698796D01*
X141325001Y-103700000D01*
X140674999Y-103700000D01*
X140650495Y-103698796D01*
X140626227Y-103695196D01*
X140602428Y-103689235D01*
X140579329Y-103680970D01*
X140557150Y-103670480D01*
X140536107Y-103657868D01*
X140516401Y-103643253D01*
X140498223Y-103626777D01*
X140481747Y-103608599D01*
X140467132Y-103588893D01*
X140454520Y-103567850D01*
X140444030Y-103545671D01*
X140435765Y-103522572D01*
X140429804Y-103498773D01*
X140426204Y-103474505D01*
X140425000Y-103450001D01*
X140425000Y-102549999D01*
X140426204Y-102525495D01*
X140429804Y-102501227D01*
X140435765Y-102477428D01*
X140444030Y-102454329D01*
X140454520Y-102432150D01*
X140467132Y-102411107D01*
X140481747Y-102391401D01*
X140498223Y-102373223D01*
X140516401Y-102356747D01*
X140536107Y-102342132D01*
X140557150Y-102329520D01*
X140579329Y-102319030D01*
X140602428Y-102310765D01*
X140626227Y-102304804D01*
X140650495Y-102301204D01*
X140674999Y-102300000D01*
X141325001Y-102300000D01*
X141349505Y-102301204D01*
G37*
G04 #@! TD.AperFunction*
G04 #@! TA.AperFunction,SMDPad,CuDef*
G36*
X143399505Y-102301204D02*
G01*
X143423773Y-102304804D01*
X143447572Y-102310765D01*
X143470671Y-102319030D01*
X143492850Y-102329520D01*
X143513893Y-102342132D01*
X143533599Y-102356747D01*
X143551777Y-102373223D01*
X143568253Y-102391401D01*
X143582868Y-102411107D01*
X143595480Y-102432150D01*
X143605970Y-102454329D01*
X143614235Y-102477428D01*
X143620196Y-102501227D01*
X143623796Y-102525495D01*
X143625000Y-102549999D01*
X143625000Y-103450001D01*
X143623796Y-103474505D01*
X143620196Y-103498773D01*
X143614235Y-103522572D01*
X143605970Y-103545671D01*
X143595480Y-103567850D01*
X143582868Y-103588893D01*
X143568253Y-103608599D01*
X143551777Y-103626777D01*
X143533599Y-103643253D01*
X143513893Y-103657868D01*
X143492850Y-103670480D01*
X143470671Y-103680970D01*
X143447572Y-103689235D01*
X143423773Y-103695196D01*
X143399505Y-103698796D01*
X143375001Y-103700000D01*
X142724999Y-103700000D01*
X142700495Y-103698796D01*
X142676227Y-103695196D01*
X142652428Y-103689235D01*
X142629329Y-103680970D01*
X142607150Y-103670480D01*
X142586107Y-103657868D01*
X142566401Y-103643253D01*
X142548223Y-103626777D01*
X142531747Y-103608599D01*
X142517132Y-103588893D01*
X142504520Y-103567850D01*
X142494030Y-103545671D01*
X142485765Y-103522572D01*
X142479804Y-103498773D01*
X142476204Y-103474505D01*
X142475000Y-103450001D01*
X142475000Y-102549999D01*
X142476204Y-102525495D01*
X142479804Y-102501227D01*
X142485765Y-102477428D01*
X142494030Y-102454329D01*
X142504520Y-102432150D01*
X142517132Y-102411107D01*
X142531747Y-102391401D01*
X142548223Y-102373223D01*
X142566401Y-102356747D01*
X142586107Y-102342132D01*
X142607150Y-102329520D01*
X142629329Y-102319030D01*
X142652428Y-102310765D01*
X142676227Y-102304804D01*
X142700495Y-102301204D01*
X142724999Y-102300000D01*
X143375001Y-102300000D01*
X143399505Y-102301204D01*
G37*
G04 #@! TD.AperFunction*
G04 #@! TA.AperFunction,SMDPad,CuDef*
G36*
X146299505Y-102301204D02*
G01*
X146323773Y-102304804D01*
X146347572Y-102310765D01*
X146370671Y-102319030D01*
X146392850Y-102329520D01*
X146413893Y-102342132D01*
X146433599Y-102356747D01*
X146451777Y-102373223D01*
X146468253Y-102391401D01*
X146482868Y-102411107D01*
X146495480Y-102432150D01*
X146505970Y-102454329D01*
X146514235Y-102477428D01*
X146520196Y-102501227D01*
X146523796Y-102525495D01*
X146525000Y-102549999D01*
X146525000Y-103450001D01*
X146523796Y-103474505D01*
X146520196Y-103498773D01*
X146514235Y-103522572D01*
X146505970Y-103545671D01*
X146495480Y-103567850D01*
X146482868Y-103588893D01*
X146468253Y-103608599D01*
X146451777Y-103626777D01*
X146433599Y-103643253D01*
X146413893Y-103657868D01*
X146392850Y-103670480D01*
X146370671Y-103680970D01*
X146347572Y-103689235D01*
X146323773Y-103695196D01*
X146299505Y-103698796D01*
X146275001Y-103700000D01*
X145624999Y-103700000D01*
X145600495Y-103698796D01*
X145576227Y-103695196D01*
X145552428Y-103689235D01*
X145529329Y-103680970D01*
X145507150Y-103670480D01*
X145486107Y-103657868D01*
X145466401Y-103643253D01*
X145448223Y-103626777D01*
X145431747Y-103608599D01*
X145417132Y-103588893D01*
X145404520Y-103567850D01*
X145394030Y-103545671D01*
X145385765Y-103522572D01*
X145379804Y-103498773D01*
X145376204Y-103474505D01*
X145375000Y-103450001D01*
X145375000Y-102549999D01*
X145376204Y-102525495D01*
X145379804Y-102501227D01*
X145385765Y-102477428D01*
X145394030Y-102454329D01*
X145404520Y-102432150D01*
X145417132Y-102411107D01*
X145431747Y-102391401D01*
X145448223Y-102373223D01*
X145466401Y-102356747D01*
X145486107Y-102342132D01*
X145507150Y-102329520D01*
X145529329Y-102319030D01*
X145552428Y-102310765D01*
X145576227Y-102304804D01*
X145600495Y-102301204D01*
X145624999Y-102300000D01*
X146275001Y-102300000D01*
X146299505Y-102301204D01*
G37*
G04 #@! TD.AperFunction*
G04 #@! TA.AperFunction,SMDPad,CuDef*
G36*
X148349505Y-102301204D02*
G01*
X148373773Y-102304804D01*
X148397572Y-102310765D01*
X148420671Y-102319030D01*
X148442850Y-102329520D01*
X148463893Y-102342132D01*
X148483599Y-102356747D01*
X148501777Y-102373223D01*
X148518253Y-102391401D01*
X148532868Y-102411107D01*
X148545480Y-102432150D01*
X148555970Y-102454329D01*
X148564235Y-102477428D01*
X148570196Y-102501227D01*
X148573796Y-102525495D01*
X148575000Y-102549999D01*
X148575000Y-103450001D01*
X148573796Y-103474505D01*
X148570196Y-103498773D01*
X148564235Y-103522572D01*
X148555970Y-103545671D01*
X148545480Y-103567850D01*
X148532868Y-103588893D01*
X148518253Y-103608599D01*
X148501777Y-103626777D01*
X148483599Y-103643253D01*
X148463893Y-103657868D01*
X148442850Y-103670480D01*
X148420671Y-103680970D01*
X148397572Y-103689235D01*
X148373773Y-103695196D01*
X148349505Y-103698796D01*
X148325001Y-103700000D01*
X147674999Y-103700000D01*
X147650495Y-103698796D01*
X147626227Y-103695196D01*
X147602428Y-103689235D01*
X147579329Y-103680970D01*
X147557150Y-103670480D01*
X147536107Y-103657868D01*
X147516401Y-103643253D01*
X147498223Y-103626777D01*
X147481747Y-103608599D01*
X147467132Y-103588893D01*
X147454520Y-103567850D01*
X147444030Y-103545671D01*
X147435765Y-103522572D01*
X147429804Y-103498773D01*
X147426204Y-103474505D01*
X147425000Y-103450001D01*
X147425000Y-102549999D01*
X147426204Y-102525495D01*
X147429804Y-102501227D01*
X147435765Y-102477428D01*
X147444030Y-102454329D01*
X147454520Y-102432150D01*
X147467132Y-102411107D01*
X147481747Y-102391401D01*
X147498223Y-102373223D01*
X147516401Y-102356747D01*
X147536107Y-102342132D01*
X147557150Y-102329520D01*
X147579329Y-102319030D01*
X147602428Y-102310765D01*
X147626227Y-102304804D01*
X147650495Y-102301204D01*
X147674999Y-102300000D01*
X148325001Y-102300000D01*
X148349505Y-102301204D01*
G37*
G04 #@! TD.AperFunction*
G04 #@! TA.AperFunction,SMDPad,CuDef*
G36*
X151299505Y-102301204D02*
G01*
X151323773Y-102304804D01*
X151347572Y-102310765D01*
X151370671Y-102319030D01*
X151392850Y-102329520D01*
X151413893Y-102342132D01*
X151433599Y-102356747D01*
X151451777Y-102373223D01*
X151468253Y-102391401D01*
X151482868Y-102411107D01*
X151495480Y-102432150D01*
X151505970Y-102454329D01*
X151514235Y-102477428D01*
X151520196Y-102501227D01*
X151523796Y-102525495D01*
X151525000Y-102549999D01*
X151525000Y-103450001D01*
X151523796Y-103474505D01*
X151520196Y-103498773D01*
X151514235Y-103522572D01*
X151505970Y-103545671D01*
X151495480Y-103567850D01*
X151482868Y-103588893D01*
X151468253Y-103608599D01*
X151451777Y-103626777D01*
X151433599Y-103643253D01*
X151413893Y-103657868D01*
X151392850Y-103670480D01*
X151370671Y-103680970D01*
X151347572Y-103689235D01*
X151323773Y-103695196D01*
X151299505Y-103698796D01*
X151275001Y-103700000D01*
X150624999Y-103700000D01*
X150600495Y-103698796D01*
X150576227Y-103695196D01*
X150552428Y-103689235D01*
X150529329Y-103680970D01*
X150507150Y-103670480D01*
X150486107Y-103657868D01*
X150466401Y-103643253D01*
X150448223Y-103626777D01*
X150431747Y-103608599D01*
X150417132Y-103588893D01*
X150404520Y-103567850D01*
X150394030Y-103545671D01*
X150385765Y-103522572D01*
X150379804Y-103498773D01*
X150376204Y-103474505D01*
X150375000Y-103450001D01*
X150375000Y-102549999D01*
X150376204Y-102525495D01*
X150379804Y-102501227D01*
X150385765Y-102477428D01*
X150394030Y-102454329D01*
X150404520Y-102432150D01*
X150417132Y-102411107D01*
X150431747Y-102391401D01*
X150448223Y-102373223D01*
X150466401Y-102356747D01*
X150486107Y-102342132D01*
X150507150Y-102329520D01*
X150529329Y-102319030D01*
X150552428Y-102310765D01*
X150576227Y-102304804D01*
X150600495Y-102301204D01*
X150624999Y-102300000D01*
X151275001Y-102300000D01*
X151299505Y-102301204D01*
G37*
G04 #@! TD.AperFunction*
G04 #@! TA.AperFunction,SMDPad,CuDef*
G36*
X153349505Y-102301204D02*
G01*
X153373773Y-102304804D01*
X153397572Y-102310765D01*
X153420671Y-102319030D01*
X153442850Y-102329520D01*
X153463893Y-102342132D01*
X153483599Y-102356747D01*
X153501777Y-102373223D01*
X153518253Y-102391401D01*
X153532868Y-102411107D01*
X153545480Y-102432150D01*
X153555970Y-102454329D01*
X153564235Y-102477428D01*
X153570196Y-102501227D01*
X153573796Y-102525495D01*
X153575000Y-102549999D01*
X153575000Y-103450001D01*
X153573796Y-103474505D01*
X153570196Y-103498773D01*
X153564235Y-103522572D01*
X153555970Y-103545671D01*
X153545480Y-103567850D01*
X153532868Y-103588893D01*
X153518253Y-103608599D01*
X153501777Y-103626777D01*
X153483599Y-103643253D01*
X153463893Y-103657868D01*
X153442850Y-103670480D01*
X153420671Y-103680970D01*
X153397572Y-103689235D01*
X153373773Y-103695196D01*
X153349505Y-103698796D01*
X153325001Y-103700000D01*
X152674999Y-103700000D01*
X152650495Y-103698796D01*
X152626227Y-103695196D01*
X152602428Y-103689235D01*
X152579329Y-103680970D01*
X152557150Y-103670480D01*
X152536107Y-103657868D01*
X152516401Y-103643253D01*
X152498223Y-103626777D01*
X152481747Y-103608599D01*
X152467132Y-103588893D01*
X152454520Y-103567850D01*
X152444030Y-103545671D01*
X152435765Y-103522572D01*
X152429804Y-103498773D01*
X152426204Y-103474505D01*
X152425000Y-103450001D01*
X152425000Y-102549999D01*
X152426204Y-102525495D01*
X152429804Y-102501227D01*
X152435765Y-102477428D01*
X152444030Y-102454329D01*
X152454520Y-102432150D01*
X152467132Y-102411107D01*
X152481747Y-102391401D01*
X152498223Y-102373223D01*
X152516401Y-102356747D01*
X152536107Y-102342132D01*
X152557150Y-102329520D01*
X152579329Y-102319030D01*
X152602428Y-102310765D01*
X152626227Y-102304804D01*
X152650495Y-102301204D01*
X152674999Y-102300000D01*
X153325001Y-102300000D01*
X153349505Y-102301204D01*
G37*
G04 #@! TD.AperFunction*
G04 #@! TA.AperFunction,SMDPad,CuDef*
G36*
X156299505Y-102301204D02*
G01*
X156323773Y-102304804D01*
X156347572Y-102310765D01*
X156370671Y-102319030D01*
X156392850Y-102329520D01*
X156413893Y-102342132D01*
X156433599Y-102356747D01*
X156451777Y-102373223D01*
X156468253Y-102391401D01*
X156482868Y-102411107D01*
X156495480Y-102432150D01*
X156505970Y-102454329D01*
X156514235Y-102477428D01*
X156520196Y-102501227D01*
X156523796Y-102525495D01*
X156525000Y-102549999D01*
X156525000Y-103450001D01*
X156523796Y-103474505D01*
X156520196Y-103498773D01*
X156514235Y-103522572D01*
X156505970Y-103545671D01*
X156495480Y-103567850D01*
X156482868Y-103588893D01*
X156468253Y-103608599D01*
X156451777Y-103626777D01*
X156433599Y-103643253D01*
X156413893Y-103657868D01*
X156392850Y-103670480D01*
X156370671Y-103680970D01*
X156347572Y-103689235D01*
X156323773Y-103695196D01*
X156299505Y-103698796D01*
X156275001Y-103700000D01*
X155624999Y-103700000D01*
X155600495Y-103698796D01*
X155576227Y-103695196D01*
X155552428Y-103689235D01*
X155529329Y-103680970D01*
X155507150Y-103670480D01*
X155486107Y-103657868D01*
X155466401Y-103643253D01*
X155448223Y-103626777D01*
X155431747Y-103608599D01*
X155417132Y-103588893D01*
X155404520Y-103567850D01*
X155394030Y-103545671D01*
X155385765Y-103522572D01*
X155379804Y-103498773D01*
X155376204Y-103474505D01*
X155375000Y-103450001D01*
X155375000Y-102549999D01*
X155376204Y-102525495D01*
X155379804Y-102501227D01*
X155385765Y-102477428D01*
X155394030Y-102454329D01*
X155404520Y-102432150D01*
X155417132Y-102411107D01*
X155431747Y-102391401D01*
X155448223Y-102373223D01*
X155466401Y-102356747D01*
X155486107Y-102342132D01*
X155507150Y-102329520D01*
X155529329Y-102319030D01*
X155552428Y-102310765D01*
X155576227Y-102304804D01*
X155600495Y-102301204D01*
X155624999Y-102300000D01*
X156275001Y-102300000D01*
X156299505Y-102301204D01*
G37*
G04 #@! TD.AperFunction*
G04 #@! TA.AperFunction,SMDPad,CuDef*
G36*
X158349505Y-102301204D02*
G01*
X158373773Y-102304804D01*
X158397572Y-102310765D01*
X158420671Y-102319030D01*
X158442850Y-102329520D01*
X158463893Y-102342132D01*
X158483599Y-102356747D01*
X158501777Y-102373223D01*
X158518253Y-102391401D01*
X158532868Y-102411107D01*
X158545480Y-102432150D01*
X158555970Y-102454329D01*
X158564235Y-102477428D01*
X158570196Y-102501227D01*
X158573796Y-102525495D01*
X158575000Y-102549999D01*
X158575000Y-103450001D01*
X158573796Y-103474505D01*
X158570196Y-103498773D01*
X158564235Y-103522572D01*
X158555970Y-103545671D01*
X158545480Y-103567850D01*
X158532868Y-103588893D01*
X158518253Y-103608599D01*
X158501777Y-103626777D01*
X158483599Y-103643253D01*
X158463893Y-103657868D01*
X158442850Y-103670480D01*
X158420671Y-103680970D01*
X158397572Y-103689235D01*
X158373773Y-103695196D01*
X158349505Y-103698796D01*
X158325001Y-103700000D01*
X157674999Y-103700000D01*
X157650495Y-103698796D01*
X157626227Y-103695196D01*
X157602428Y-103689235D01*
X157579329Y-103680970D01*
X157557150Y-103670480D01*
X157536107Y-103657868D01*
X157516401Y-103643253D01*
X157498223Y-103626777D01*
X157481747Y-103608599D01*
X157467132Y-103588893D01*
X157454520Y-103567850D01*
X157444030Y-103545671D01*
X157435765Y-103522572D01*
X157429804Y-103498773D01*
X157426204Y-103474505D01*
X157425000Y-103450001D01*
X157425000Y-102549999D01*
X157426204Y-102525495D01*
X157429804Y-102501227D01*
X157435765Y-102477428D01*
X157444030Y-102454329D01*
X157454520Y-102432150D01*
X157467132Y-102411107D01*
X157481747Y-102391401D01*
X157498223Y-102373223D01*
X157516401Y-102356747D01*
X157536107Y-102342132D01*
X157557150Y-102329520D01*
X157579329Y-102319030D01*
X157602428Y-102310765D01*
X157626227Y-102304804D01*
X157650495Y-102301204D01*
X157674999Y-102300000D01*
X158325001Y-102300000D01*
X158349505Y-102301204D01*
G37*
G04 #@! TD.AperFunction*
G04 #@! TA.AperFunction,SMDPad,CuDef*
G36*
X161299505Y-102301204D02*
G01*
X161323773Y-102304804D01*
X161347572Y-102310765D01*
X161370671Y-102319030D01*
X161392850Y-102329520D01*
X161413893Y-102342132D01*
X161433599Y-102356747D01*
X161451777Y-102373223D01*
X161468253Y-102391401D01*
X161482868Y-102411107D01*
X161495480Y-102432150D01*
X161505970Y-102454329D01*
X161514235Y-102477428D01*
X161520196Y-102501227D01*
X161523796Y-102525495D01*
X161525000Y-102549999D01*
X161525000Y-103450001D01*
X161523796Y-103474505D01*
X161520196Y-103498773D01*
X161514235Y-103522572D01*
X161505970Y-103545671D01*
X161495480Y-103567850D01*
X161482868Y-103588893D01*
X161468253Y-103608599D01*
X161451777Y-103626777D01*
X161433599Y-103643253D01*
X161413893Y-103657868D01*
X161392850Y-103670480D01*
X161370671Y-103680970D01*
X161347572Y-103689235D01*
X161323773Y-103695196D01*
X161299505Y-103698796D01*
X161275001Y-103700000D01*
X160624999Y-103700000D01*
X160600495Y-103698796D01*
X160576227Y-103695196D01*
X160552428Y-103689235D01*
X160529329Y-103680970D01*
X160507150Y-103670480D01*
X160486107Y-103657868D01*
X160466401Y-103643253D01*
X160448223Y-103626777D01*
X160431747Y-103608599D01*
X160417132Y-103588893D01*
X160404520Y-103567850D01*
X160394030Y-103545671D01*
X160385765Y-103522572D01*
X160379804Y-103498773D01*
X160376204Y-103474505D01*
X160375000Y-103450001D01*
X160375000Y-102549999D01*
X160376204Y-102525495D01*
X160379804Y-102501227D01*
X160385765Y-102477428D01*
X160394030Y-102454329D01*
X160404520Y-102432150D01*
X160417132Y-102411107D01*
X160431747Y-102391401D01*
X160448223Y-102373223D01*
X160466401Y-102356747D01*
X160486107Y-102342132D01*
X160507150Y-102329520D01*
X160529329Y-102319030D01*
X160552428Y-102310765D01*
X160576227Y-102304804D01*
X160600495Y-102301204D01*
X160624999Y-102300000D01*
X161275001Y-102300000D01*
X161299505Y-102301204D01*
G37*
G04 #@! TD.AperFunction*
G04 #@! TA.AperFunction,SMDPad,CuDef*
G36*
X163349505Y-102301204D02*
G01*
X163373773Y-102304804D01*
X163397572Y-102310765D01*
X163420671Y-102319030D01*
X163442850Y-102329520D01*
X163463893Y-102342132D01*
X163483599Y-102356747D01*
X163501777Y-102373223D01*
X163518253Y-102391401D01*
X163532868Y-102411107D01*
X163545480Y-102432150D01*
X163555970Y-102454329D01*
X163564235Y-102477428D01*
X163570196Y-102501227D01*
X163573796Y-102525495D01*
X163575000Y-102549999D01*
X163575000Y-103450001D01*
X163573796Y-103474505D01*
X163570196Y-103498773D01*
X163564235Y-103522572D01*
X163555970Y-103545671D01*
X163545480Y-103567850D01*
X163532868Y-103588893D01*
X163518253Y-103608599D01*
X163501777Y-103626777D01*
X163483599Y-103643253D01*
X163463893Y-103657868D01*
X163442850Y-103670480D01*
X163420671Y-103680970D01*
X163397572Y-103689235D01*
X163373773Y-103695196D01*
X163349505Y-103698796D01*
X163325001Y-103700000D01*
X162674999Y-103700000D01*
X162650495Y-103698796D01*
X162626227Y-103695196D01*
X162602428Y-103689235D01*
X162579329Y-103680970D01*
X162557150Y-103670480D01*
X162536107Y-103657868D01*
X162516401Y-103643253D01*
X162498223Y-103626777D01*
X162481747Y-103608599D01*
X162467132Y-103588893D01*
X162454520Y-103567850D01*
X162444030Y-103545671D01*
X162435765Y-103522572D01*
X162429804Y-103498773D01*
X162426204Y-103474505D01*
X162425000Y-103450001D01*
X162425000Y-102549999D01*
X162426204Y-102525495D01*
X162429804Y-102501227D01*
X162435765Y-102477428D01*
X162444030Y-102454329D01*
X162454520Y-102432150D01*
X162467132Y-102411107D01*
X162481747Y-102391401D01*
X162498223Y-102373223D01*
X162516401Y-102356747D01*
X162536107Y-102342132D01*
X162557150Y-102329520D01*
X162579329Y-102319030D01*
X162602428Y-102310765D01*
X162626227Y-102304804D01*
X162650495Y-102301204D01*
X162674999Y-102300000D01*
X163325001Y-102300000D01*
X163349505Y-102301204D01*
G37*
G04 #@! TD.AperFunction*
G04 #@! TA.AperFunction,SMDPad,CuDef*
G36*
X146349505Y-85301204D02*
G01*
X146373773Y-85304804D01*
X146397572Y-85310765D01*
X146420671Y-85319030D01*
X146442850Y-85329520D01*
X146463893Y-85342132D01*
X146483599Y-85356747D01*
X146501777Y-85373223D01*
X146518253Y-85391401D01*
X146532868Y-85411107D01*
X146545480Y-85432150D01*
X146555970Y-85454329D01*
X146564235Y-85477428D01*
X146570196Y-85501227D01*
X146573796Y-85525495D01*
X146575000Y-85549999D01*
X146575000Y-86450001D01*
X146573796Y-86474505D01*
X146570196Y-86498773D01*
X146564235Y-86522572D01*
X146555970Y-86545671D01*
X146545480Y-86567850D01*
X146532868Y-86588893D01*
X146518253Y-86608599D01*
X146501777Y-86626777D01*
X146483599Y-86643253D01*
X146463893Y-86657868D01*
X146442850Y-86670480D01*
X146420671Y-86680970D01*
X146397572Y-86689235D01*
X146373773Y-86695196D01*
X146349505Y-86698796D01*
X146325001Y-86700000D01*
X145674999Y-86700000D01*
X145650495Y-86698796D01*
X145626227Y-86695196D01*
X145602428Y-86689235D01*
X145579329Y-86680970D01*
X145557150Y-86670480D01*
X145536107Y-86657868D01*
X145516401Y-86643253D01*
X145498223Y-86626777D01*
X145481747Y-86608599D01*
X145467132Y-86588893D01*
X145454520Y-86567850D01*
X145444030Y-86545671D01*
X145435765Y-86522572D01*
X145429804Y-86498773D01*
X145426204Y-86474505D01*
X145425000Y-86450001D01*
X145425000Y-85549999D01*
X145426204Y-85525495D01*
X145429804Y-85501227D01*
X145435765Y-85477428D01*
X145444030Y-85454329D01*
X145454520Y-85432150D01*
X145467132Y-85411107D01*
X145481747Y-85391401D01*
X145498223Y-85373223D01*
X145516401Y-85356747D01*
X145536107Y-85342132D01*
X145557150Y-85329520D01*
X145579329Y-85319030D01*
X145602428Y-85310765D01*
X145626227Y-85304804D01*
X145650495Y-85301204D01*
X145674999Y-85300000D01*
X146325001Y-85300000D01*
X146349505Y-85301204D01*
G37*
G04 #@! TD.AperFunction*
G04 #@! TA.AperFunction,SMDPad,CuDef*
G36*
X144299505Y-85301204D02*
G01*
X144323773Y-85304804D01*
X144347572Y-85310765D01*
X144370671Y-85319030D01*
X144392850Y-85329520D01*
X144413893Y-85342132D01*
X144433599Y-85356747D01*
X144451777Y-85373223D01*
X144468253Y-85391401D01*
X144482868Y-85411107D01*
X144495480Y-85432150D01*
X144505970Y-85454329D01*
X144514235Y-85477428D01*
X144520196Y-85501227D01*
X144523796Y-85525495D01*
X144525000Y-85549999D01*
X144525000Y-86450001D01*
X144523796Y-86474505D01*
X144520196Y-86498773D01*
X144514235Y-86522572D01*
X144505970Y-86545671D01*
X144495480Y-86567850D01*
X144482868Y-86588893D01*
X144468253Y-86608599D01*
X144451777Y-86626777D01*
X144433599Y-86643253D01*
X144413893Y-86657868D01*
X144392850Y-86670480D01*
X144370671Y-86680970D01*
X144347572Y-86689235D01*
X144323773Y-86695196D01*
X144299505Y-86698796D01*
X144275001Y-86700000D01*
X143624999Y-86700000D01*
X143600495Y-86698796D01*
X143576227Y-86695196D01*
X143552428Y-86689235D01*
X143529329Y-86680970D01*
X143507150Y-86670480D01*
X143486107Y-86657868D01*
X143466401Y-86643253D01*
X143448223Y-86626777D01*
X143431747Y-86608599D01*
X143417132Y-86588893D01*
X143404520Y-86567850D01*
X143394030Y-86545671D01*
X143385765Y-86522572D01*
X143379804Y-86498773D01*
X143376204Y-86474505D01*
X143375000Y-86450001D01*
X143375000Y-85549999D01*
X143376204Y-85525495D01*
X143379804Y-85501227D01*
X143385765Y-85477428D01*
X143394030Y-85454329D01*
X143404520Y-85432150D01*
X143417132Y-85411107D01*
X143431747Y-85391401D01*
X143448223Y-85373223D01*
X143466401Y-85356747D01*
X143486107Y-85342132D01*
X143507150Y-85329520D01*
X143529329Y-85319030D01*
X143552428Y-85310765D01*
X143576227Y-85304804D01*
X143600495Y-85301204D01*
X143624999Y-85300000D01*
X144275001Y-85300000D01*
X144299505Y-85301204D01*
G37*
G04 #@! TD.AperFunction*
G04 #@! TA.AperFunction,SMDPad,CuDef*
G36*
X115474504Y-87201204D02*
G01*
X115498773Y-87204804D01*
X115522571Y-87210765D01*
X115545671Y-87219030D01*
X115567849Y-87229520D01*
X115588893Y-87242133D01*
X115608598Y-87256747D01*
X115626777Y-87273223D01*
X115643253Y-87291402D01*
X115657867Y-87311107D01*
X115670480Y-87332151D01*
X115680970Y-87354329D01*
X115689235Y-87377429D01*
X115695196Y-87401227D01*
X115698796Y-87425496D01*
X115700000Y-87450000D01*
X115700000Y-88550000D01*
X115698796Y-88574504D01*
X115695196Y-88598773D01*
X115689235Y-88622571D01*
X115680970Y-88645671D01*
X115670480Y-88667849D01*
X115657867Y-88688893D01*
X115643253Y-88708598D01*
X115626777Y-88726777D01*
X115608598Y-88743253D01*
X115588893Y-88757867D01*
X115567849Y-88770480D01*
X115545671Y-88780970D01*
X115522571Y-88789235D01*
X115498773Y-88795196D01*
X115474504Y-88798796D01*
X115450000Y-88800000D01*
X113350000Y-88800000D01*
X113325496Y-88798796D01*
X113301227Y-88795196D01*
X113277429Y-88789235D01*
X113254329Y-88780970D01*
X113232151Y-88770480D01*
X113211107Y-88757867D01*
X113191402Y-88743253D01*
X113173223Y-88726777D01*
X113156747Y-88708598D01*
X113142133Y-88688893D01*
X113129520Y-88667849D01*
X113119030Y-88645671D01*
X113110765Y-88622571D01*
X113104804Y-88598773D01*
X113101204Y-88574504D01*
X113100000Y-88550000D01*
X113100000Y-87450000D01*
X113101204Y-87425496D01*
X113104804Y-87401227D01*
X113110765Y-87377429D01*
X113119030Y-87354329D01*
X113129520Y-87332151D01*
X113142133Y-87311107D01*
X113156747Y-87291402D01*
X113173223Y-87273223D01*
X113191402Y-87256747D01*
X113211107Y-87242133D01*
X113232151Y-87229520D01*
X113254329Y-87219030D01*
X113277429Y-87210765D01*
X113301227Y-87204804D01*
X113325496Y-87201204D01*
X113350000Y-87200000D01*
X115450000Y-87200000D01*
X115474504Y-87201204D01*
G37*
G04 #@! TD.AperFunction*
G04 #@! TA.AperFunction,SMDPad,CuDef*
G36*
X119074504Y-87201204D02*
G01*
X119098773Y-87204804D01*
X119122571Y-87210765D01*
X119145671Y-87219030D01*
X119167849Y-87229520D01*
X119188893Y-87242133D01*
X119208598Y-87256747D01*
X119226777Y-87273223D01*
X119243253Y-87291402D01*
X119257867Y-87311107D01*
X119270480Y-87332151D01*
X119280970Y-87354329D01*
X119289235Y-87377429D01*
X119295196Y-87401227D01*
X119298796Y-87425496D01*
X119300000Y-87450000D01*
X119300000Y-88550000D01*
X119298796Y-88574504D01*
X119295196Y-88598773D01*
X119289235Y-88622571D01*
X119280970Y-88645671D01*
X119270480Y-88667849D01*
X119257867Y-88688893D01*
X119243253Y-88708598D01*
X119226777Y-88726777D01*
X119208598Y-88743253D01*
X119188893Y-88757867D01*
X119167849Y-88770480D01*
X119145671Y-88780970D01*
X119122571Y-88789235D01*
X119098773Y-88795196D01*
X119074504Y-88798796D01*
X119050000Y-88800000D01*
X116950000Y-88800000D01*
X116925496Y-88798796D01*
X116901227Y-88795196D01*
X116877429Y-88789235D01*
X116854329Y-88780970D01*
X116832151Y-88770480D01*
X116811107Y-88757867D01*
X116791402Y-88743253D01*
X116773223Y-88726777D01*
X116756747Y-88708598D01*
X116742133Y-88688893D01*
X116729520Y-88667849D01*
X116719030Y-88645671D01*
X116710765Y-88622571D01*
X116704804Y-88598773D01*
X116701204Y-88574504D01*
X116700000Y-88550000D01*
X116700000Y-87450000D01*
X116701204Y-87425496D01*
X116704804Y-87401227D01*
X116710765Y-87377429D01*
X116719030Y-87354329D01*
X116729520Y-87332151D01*
X116742133Y-87311107D01*
X116756747Y-87291402D01*
X116773223Y-87273223D01*
X116791402Y-87256747D01*
X116811107Y-87242133D01*
X116832151Y-87229520D01*
X116854329Y-87219030D01*
X116877429Y-87210765D01*
X116901227Y-87204804D01*
X116925496Y-87201204D01*
X116950000Y-87200000D01*
X119050000Y-87200000D01*
X119074504Y-87201204D01*
G37*
G04 #@! TD.AperFunction*
G04 #@! TA.AperFunction,SMDPad,CuDef*
G36*
X151374505Y-95301204D02*
G01*
X151398773Y-95304804D01*
X151422572Y-95310765D01*
X151445671Y-95319030D01*
X151467850Y-95329520D01*
X151488893Y-95342132D01*
X151508599Y-95356747D01*
X151526777Y-95373223D01*
X151543253Y-95391401D01*
X151557868Y-95411107D01*
X151570480Y-95432150D01*
X151580970Y-95454329D01*
X151589235Y-95477428D01*
X151595196Y-95501227D01*
X151598796Y-95525495D01*
X151600000Y-95549999D01*
X151600000Y-96450001D01*
X151598796Y-96474505D01*
X151595196Y-96498773D01*
X151589235Y-96522572D01*
X151580970Y-96545671D01*
X151570480Y-96567850D01*
X151557868Y-96588893D01*
X151543253Y-96608599D01*
X151526777Y-96626777D01*
X151508599Y-96643253D01*
X151488893Y-96657868D01*
X151467850Y-96670480D01*
X151445671Y-96680970D01*
X151422572Y-96689235D01*
X151398773Y-96695196D01*
X151374505Y-96698796D01*
X151350001Y-96700000D01*
X150699999Y-96700000D01*
X150675495Y-96698796D01*
X150651227Y-96695196D01*
X150627428Y-96689235D01*
X150604329Y-96680970D01*
X150582150Y-96670480D01*
X150561107Y-96657868D01*
X150541401Y-96643253D01*
X150523223Y-96626777D01*
X150506747Y-96608599D01*
X150492132Y-96588893D01*
X150479520Y-96567850D01*
X150469030Y-96545671D01*
X150460765Y-96522572D01*
X150454804Y-96498773D01*
X150451204Y-96474505D01*
X150450000Y-96450001D01*
X150450000Y-95549999D01*
X150451204Y-95525495D01*
X150454804Y-95501227D01*
X150460765Y-95477428D01*
X150469030Y-95454329D01*
X150479520Y-95432150D01*
X150492132Y-95411107D01*
X150506747Y-95391401D01*
X150523223Y-95373223D01*
X150541401Y-95356747D01*
X150561107Y-95342132D01*
X150582150Y-95329520D01*
X150604329Y-95319030D01*
X150627428Y-95310765D01*
X150651227Y-95304804D01*
X150675495Y-95301204D01*
X150699999Y-95300000D01*
X151350001Y-95300000D01*
X151374505Y-95301204D01*
G37*
G04 #@! TD.AperFunction*
G04 #@! TA.AperFunction,SMDPad,CuDef*
G36*
X149324505Y-95301204D02*
G01*
X149348773Y-95304804D01*
X149372572Y-95310765D01*
X149395671Y-95319030D01*
X149417850Y-95329520D01*
X149438893Y-95342132D01*
X149458599Y-95356747D01*
X149476777Y-95373223D01*
X149493253Y-95391401D01*
X149507868Y-95411107D01*
X149520480Y-95432150D01*
X149530970Y-95454329D01*
X149539235Y-95477428D01*
X149545196Y-95501227D01*
X149548796Y-95525495D01*
X149550000Y-95549999D01*
X149550000Y-96450001D01*
X149548796Y-96474505D01*
X149545196Y-96498773D01*
X149539235Y-96522572D01*
X149530970Y-96545671D01*
X149520480Y-96567850D01*
X149507868Y-96588893D01*
X149493253Y-96608599D01*
X149476777Y-96626777D01*
X149458599Y-96643253D01*
X149438893Y-96657868D01*
X149417850Y-96670480D01*
X149395671Y-96680970D01*
X149372572Y-96689235D01*
X149348773Y-96695196D01*
X149324505Y-96698796D01*
X149300001Y-96700000D01*
X148649999Y-96700000D01*
X148625495Y-96698796D01*
X148601227Y-96695196D01*
X148577428Y-96689235D01*
X148554329Y-96680970D01*
X148532150Y-96670480D01*
X148511107Y-96657868D01*
X148491401Y-96643253D01*
X148473223Y-96626777D01*
X148456747Y-96608599D01*
X148442132Y-96588893D01*
X148429520Y-96567850D01*
X148419030Y-96545671D01*
X148410765Y-96522572D01*
X148404804Y-96498773D01*
X148401204Y-96474505D01*
X148400000Y-96450001D01*
X148400000Y-95549999D01*
X148401204Y-95525495D01*
X148404804Y-95501227D01*
X148410765Y-95477428D01*
X148419030Y-95454329D01*
X148429520Y-95432150D01*
X148442132Y-95411107D01*
X148456747Y-95391401D01*
X148473223Y-95373223D01*
X148491401Y-95356747D01*
X148511107Y-95342132D01*
X148532150Y-95329520D01*
X148554329Y-95319030D01*
X148577428Y-95310765D01*
X148601227Y-95304804D01*
X148625495Y-95301204D01*
X148649999Y-95300000D01*
X149300001Y-95300000D01*
X149324505Y-95301204D01*
G37*
G04 #@! TD.AperFunction*
G04 #@! TA.AperFunction,SMDPad,CuDef*
G36*
X151399505Y-90301204D02*
G01*
X151423773Y-90304804D01*
X151447572Y-90310765D01*
X151470671Y-90319030D01*
X151492850Y-90329520D01*
X151513893Y-90342132D01*
X151533599Y-90356747D01*
X151551777Y-90373223D01*
X151568253Y-90391401D01*
X151582868Y-90411107D01*
X151595480Y-90432150D01*
X151605970Y-90454329D01*
X151614235Y-90477428D01*
X151620196Y-90501227D01*
X151623796Y-90525495D01*
X151625000Y-90549999D01*
X151625000Y-91450001D01*
X151623796Y-91474505D01*
X151620196Y-91498773D01*
X151614235Y-91522572D01*
X151605970Y-91545671D01*
X151595480Y-91567850D01*
X151582868Y-91588893D01*
X151568253Y-91608599D01*
X151551777Y-91626777D01*
X151533599Y-91643253D01*
X151513893Y-91657868D01*
X151492850Y-91670480D01*
X151470671Y-91680970D01*
X151447572Y-91689235D01*
X151423773Y-91695196D01*
X151399505Y-91698796D01*
X151375001Y-91700000D01*
X150724999Y-91700000D01*
X150700495Y-91698796D01*
X150676227Y-91695196D01*
X150652428Y-91689235D01*
X150629329Y-91680970D01*
X150607150Y-91670480D01*
X150586107Y-91657868D01*
X150566401Y-91643253D01*
X150548223Y-91626777D01*
X150531747Y-91608599D01*
X150517132Y-91588893D01*
X150504520Y-91567850D01*
X150494030Y-91545671D01*
X150485765Y-91522572D01*
X150479804Y-91498773D01*
X150476204Y-91474505D01*
X150475000Y-91450001D01*
X150475000Y-90549999D01*
X150476204Y-90525495D01*
X150479804Y-90501227D01*
X150485765Y-90477428D01*
X150494030Y-90454329D01*
X150504520Y-90432150D01*
X150517132Y-90411107D01*
X150531747Y-90391401D01*
X150548223Y-90373223D01*
X150566401Y-90356747D01*
X150586107Y-90342132D01*
X150607150Y-90329520D01*
X150629329Y-90319030D01*
X150652428Y-90310765D01*
X150676227Y-90304804D01*
X150700495Y-90301204D01*
X150724999Y-90300000D01*
X151375001Y-90300000D01*
X151399505Y-90301204D01*
G37*
G04 #@! TD.AperFunction*
G04 #@! TA.AperFunction,SMDPad,CuDef*
G36*
X149349505Y-90301204D02*
G01*
X149373773Y-90304804D01*
X149397572Y-90310765D01*
X149420671Y-90319030D01*
X149442850Y-90329520D01*
X149463893Y-90342132D01*
X149483599Y-90356747D01*
X149501777Y-90373223D01*
X149518253Y-90391401D01*
X149532868Y-90411107D01*
X149545480Y-90432150D01*
X149555970Y-90454329D01*
X149564235Y-90477428D01*
X149570196Y-90501227D01*
X149573796Y-90525495D01*
X149575000Y-90549999D01*
X149575000Y-91450001D01*
X149573796Y-91474505D01*
X149570196Y-91498773D01*
X149564235Y-91522572D01*
X149555970Y-91545671D01*
X149545480Y-91567850D01*
X149532868Y-91588893D01*
X149518253Y-91608599D01*
X149501777Y-91626777D01*
X149483599Y-91643253D01*
X149463893Y-91657868D01*
X149442850Y-91670480D01*
X149420671Y-91680970D01*
X149397572Y-91689235D01*
X149373773Y-91695196D01*
X149349505Y-91698796D01*
X149325001Y-91700000D01*
X148674999Y-91700000D01*
X148650495Y-91698796D01*
X148626227Y-91695196D01*
X148602428Y-91689235D01*
X148579329Y-91680970D01*
X148557150Y-91670480D01*
X148536107Y-91657868D01*
X148516401Y-91643253D01*
X148498223Y-91626777D01*
X148481747Y-91608599D01*
X148467132Y-91588893D01*
X148454520Y-91567850D01*
X148444030Y-91545671D01*
X148435765Y-91522572D01*
X148429804Y-91498773D01*
X148426204Y-91474505D01*
X148425000Y-91450001D01*
X148425000Y-90549999D01*
X148426204Y-90525495D01*
X148429804Y-90501227D01*
X148435765Y-90477428D01*
X148444030Y-90454329D01*
X148454520Y-90432150D01*
X148467132Y-90411107D01*
X148481747Y-90391401D01*
X148498223Y-90373223D01*
X148516401Y-90356747D01*
X148536107Y-90342132D01*
X148557150Y-90329520D01*
X148579329Y-90319030D01*
X148602428Y-90310765D01*
X148626227Y-90304804D01*
X148650495Y-90301204D01*
X148674999Y-90300000D01*
X149325001Y-90300000D01*
X149349505Y-90301204D01*
G37*
G04 #@! TD.AperFunction*
G04 #@! TA.AperFunction,SMDPad,CuDef*
G36*
X131512004Y-74126204D02*
G01*
X131536273Y-74129804D01*
X131560071Y-74135765D01*
X131583171Y-74144030D01*
X131605349Y-74154520D01*
X131626393Y-74167133D01*
X131646098Y-74181747D01*
X131664277Y-74198223D01*
X131680753Y-74216402D01*
X131695367Y-74236107D01*
X131707980Y-74257151D01*
X131718470Y-74279329D01*
X131726735Y-74302429D01*
X131732696Y-74326227D01*
X131736296Y-74350496D01*
X131737500Y-74375000D01*
X131737500Y-75625000D01*
X131736296Y-75649504D01*
X131732696Y-75673773D01*
X131726735Y-75697571D01*
X131718470Y-75720671D01*
X131707980Y-75742849D01*
X131695367Y-75763893D01*
X131680753Y-75783598D01*
X131664277Y-75801777D01*
X131646098Y-75818253D01*
X131626393Y-75832867D01*
X131605349Y-75845480D01*
X131583171Y-75855970D01*
X131560071Y-75864235D01*
X131536273Y-75870196D01*
X131512004Y-75873796D01*
X131487500Y-75875000D01*
X130562500Y-75875000D01*
X130537996Y-75873796D01*
X130513727Y-75870196D01*
X130489929Y-75864235D01*
X130466829Y-75855970D01*
X130444651Y-75845480D01*
X130423607Y-75832867D01*
X130403902Y-75818253D01*
X130385723Y-75801777D01*
X130369247Y-75783598D01*
X130354633Y-75763893D01*
X130342020Y-75742849D01*
X130331530Y-75720671D01*
X130323265Y-75697571D01*
X130317304Y-75673773D01*
X130313704Y-75649504D01*
X130312500Y-75625000D01*
X130312500Y-74375000D01*
X130313704Y-74350496D01*
X130317304Y-74326227D01*
X130323265Y-74302429D01*
X130331530Y-74279329D01*
X130342020Y-74257151D01*
X130354633Y-74236107D01*
X130369247Y-74216402D01*
X130385723Y-74198223D01*
X130403902Y-74181747D01*
X130423607Y-74167133D01*
X130444651Y-74154520D01*
X130466829Y-74144030D01*
X130489929Y-74135765D01*
X130513727Y-74129804D01*
X130537996Y-74126204D01*
X130562500Y-74125000D01*
X131487500Y-74125000D01*
X131512004Y-74126204D01*
G37*
G04 #@! TD.AperFunction*
G04 #@! TA.AperFunction,SMDPad,CuDef*
G36*
X134487004Y-74126204D02*
G01*
X134511273Y-74129804D01*
X134535071Y-74135765D01*
X134558171Y-74144030D01*
X134580349Y-74154520D01*
X134601393Y-74167133D01*
X134621098Y-74181747D01*
X134639277Y-74198223D01*
X134655753Y-74216402D01*
X134670367Y-74236107D01*
X134682980Y-74257151D01*
X134693470Y-74279329D01*
X134701735Y-74302429D01*
X134707696Y-74326227D01*
X134711296Y-74350496D01*
X134712500Y-74375000D01*
X134712500Y-75625000D01*
X134711296Y-75649504D01*
X134707696Y-75673773D01*
X134701735Y-75697571D01*
X134693470Y-75720671D01*
X134682980Y-75742849D01*
X134670367Y-75763893D01*
X134655753Y-75783598D01*
X134639277Y-75801777D01*
X134621098Y-75818253D01*
X134601393Y-75832867D01*
X134580349Y-75845480D01*
X134558171Y-75855970D01*
X134535071Y-75864235D01*
X134511273Y-75870196D01*
X134487004Y-75873796D01*
X134462500Y-75875000D01*
X133537500Y-75875000D01*
X133512996Y-75873796D01*
X133488727Y-75870196D01*
X133464929Y-75864235D01*
X133441829Y-75855970D01*
X133419651Y-75845480D01*
X133398607Y-75832867D01*
X133378902Y-75818253D01*
X133360723Y-75801777D01*
X133344247Y-75783598D01*
X133329633Y-75763893D01*
X133317020Y-75742849D01*
X133306530Y-75720671D01*
X133298265Y-75697571D01*
X133292304Y-75673773D01*
X133288704Y-75649504D01*
X133287500Y-75625000D01*
X133287500Y-74375000D01*
X133288704Y-74350496D01*
X133292304Y-74326227D01*
X133298265Y-74302429D01*
X133306530Y-74279329D01*
X133317020Y-74257151D01*
X133329633Y-74236107D01*
X133344247Y-74216402D01*
X133360723Y-74198223D01*
X133378902Y-74181747D01*
X133398607Y-74167133D01*
X133419651Y-74154520D01*
X133441829Y-74144030D01*
X133464929Y-74135765D01*
X133488727Y-74129804D01*
X133512996Y-74126204D01*
X133537500Y-74125000D01*
X134462500Y-74125000D01*
X134487004Y-74126204D01*
G37*
G04 #@! TD.AperFunction*
G04 #@! TA.AperFunction,SMDPad,CuDef*
G36*
X140474505Y-80451204D02*
G01*
X140498773Y-80454804D01*
X140522572Y-80460765D01*
X140545671Y-80469030D01*
X140567850Y-80479520D01*
X140588893Y-80492132D01*
X140608599Y-80506747D01*
X140626777Y-80523223D01*
X140643253Y-80541401D01*
X140657868Y-80561107D01*
X140670480Y-80582150D01*
X140680970Y-80604329D01*
X140689235Y-80627428D01*
X140695196Y-80651227D01*
X140698796Y-80675495D01*
X140700000Y-80699999D01*
X140700000Y-81350001D01*
X140698796Y-81374505D01*
X140695196Y-81398773D01*
X140689235Y-81422572D01*
X140680970Y-81445671D01*
X140670480Y-81467850D01*
X140657868Y-81488893D01*
X140643253Y-81508599D01*
X140626777Y-81526777D01*
X140608599Y-81543253D01*
X140588893Y-81557868D01*
X140567850Y-81570480D01*
X140545671Y-81580970D01*
X140522572Y-81589235D01*
X140498773Y-81595196D01*
X140474505Y-81598796D01*
X140450001Y-81600000D01*
X139549999Y-81600000D01*
X139525495Y-81598796D01*
X139501227Y-81595196D01*
X139477428Y-81589235D01*
X139454329Y-81580970D01*
X139432150Y-81570480D01*
X139411107Y-81557868D01*
X139391401Y-81543253D01*
X139373223Y-81526777D01*
X139356747Y-81508599D01*
X139342132Y-81488893D01*
X139329520Y-81467850D01*
X139319030Y-81445671D01*
X139310765Y-81422572D01*
X139304804Y-81398773D01*
X139301204Y-81374505D01*
X139300000Y-81350001D01*
X139300000Y-80699999D01*
X139301204Y-80675495D01*
X139304804Y-80651227D01*
X139310765Y-80627428D01*
X139319030Y-80604329D01*
X139329520Y-80582150D01*
X139342132Y-80561107D01*
X139356747Y-80541401D01*
X139373223Y-80523223D01*
X139391401Y-80506747D01*
X139411107Y-80492132D01*
X139432150Y-80479520D01*
X139454329Y-80469030D01*
X139477428Y-80460765D01*
X139501227Y-80454804D01*
X139525495Y-80451204D01*
X139549999Y-80450000D01*
X140450001Y-80450000D01*
X140474505Y-80451204D01*
G37*
G04 #@! TD.AperFunction*
G04 #@! TA.AperFunction,SMDPad,CuDef*
G36*
X140474505Y-78401204D02*
G01*
X140498773Y-78404804D01*
X140522572Y-78410765D01*
X140545671Y-78419030D01*
X140567850Y-78429520D01*
X140588893Y-78442132D01*
X140608599Y-78456747D01*
X140626777Y-78473223D01*
X140643253Y-78491401D01*
X140657868Y-78511107D01*
X140670480Y-78532150D01*
X140680970Y-78554329D01*
X140689235Y-78577428D01*
X140695196Y-78601227D01*
X140698796Y-78625495D01*
X140700000Y-78649999D01*
X140700000Y-79300001D01*
X140698796Y-79324505D01*
X140695196Y-79348773D01*
X140689235Y-79372572D01*
X140680970Y-79395671D01*
X140670480Y-79417850D01*
X140657868Y-79438893D01*
X140643253Y-79458599D01*
X140626777Y-79476777D01*
X140608599Y-79493253D01*
X140588893Y-79507868D01*
X140567850Y-79520480D01*
X140545671Y-79530970D01*
X140522572Y-79539235D01*
X140498773Y-79545196D01*
X140474505Y-79548796D01*
X140450001Y-79550000D01*
X139549999Y-79550000D01*
X139525495Y-79548796D01*
X139501227Y-79545196D01*
X139477428Y-79539235D01*
X139454329Y-79530970D01*
X139432150Y-79520480D01*
X139411107Y-79507868D01*
X139391401Y-79493253D01*
X139373223Y-79476777D01*
X139356747Y-79458599D01*
X139342132Y-79438893D01*
X139329520Y-79417850D01*
X139319030Y-79395671D01*
X139310765Y-79372572D01*
X139304804Y-79348773D01*
X139301204Y-79324505D01*
X139300000Y-79300001D01*
X139300000Y-78649999D01*
X139301204Y-78625495D01*
X139304804Y-78601227D01*
X139310765Y-78577428D01*
X139319030Y-78554329D01*
X139329520Y-78532150D01*
X139342132Y-78511107D01*
X139356747Y-78491401D01*
X139373223Y-78473223D01*
X139391401Y-78456747D01*
X139411107Y-78442132D01*
X139432150Y-78429520D01*
X139454329Y-78419030D01*
X139477428Y-78410765D01*
X139501227Y-78404804D01*
X139525495Y-78401204D01*
X139549999Y-78400000D01*
X140450001Y-78400000D01*
X140474505Y-78401204D01*
G37*
G04 #@! TD.AperFunction*
G04 #@! TA.AperFunction,SMDPad,CuDef*
G36*
X145349505Y-74301204D02*
G01*
X145373773Y-74304804D01*
X145397572Y-74310765D01*
X145420671Y-74319030D01*
X145442850Y-74329520D01*
X145463893Y-74342132D01*
X145483599Y-74356747D01*
X145501777Y-74373223D01*
X145518253Y-74391401D01*
X145532868Y-74411107D01*
X145545480Y-74432150D01*
X145555970Y-74454329D01*
X145564235Y-74477428D01*
X145570196Y-74501227D01*
X145573796Y-74525495D01*
X145575000Y-74549999D01*
X145575000Y-75450001D01*
X145573796Y-75474505D01*
X145570196Y-75498773D01*
X145564235Y-75522572D01*
X145555970Y-75545671D01*
X145545480Y-75567850D01*
X145532868Y-75588893D01*
X145518253Y-75608599D01*
X145501777Y-75626777D01*
X145483599Y-75643253D01*
X145463893Y-75657868D01*
X145442850Y-75670480D01*
X145420671Y-75680970D01*
X145397572Y-75689235D01*
X145373773Y-75695196D01*
X145349505Y-75698796D01*
X145325001Y-75700000D01*
X144674999Y-75700000D01*
X144650495Y-75698796D01*
X144626227Y-75695196D01*
X144602428Y-75689235D01*
X144579329Y-75680970D01*
X144557150Y-75670480D01*
X144536107Y-75657868D01*
X144516401Y-75643253D01*
X144498223Y-75626777D01*
X144481747Y-75608599D01*
X144467132Y-75588893D01*
X144454520Y-75567850D01*
X144444030Y-75545671D01*
X144435765Y-75522572D01*
X144429804Y-75498773D01*
X144426204Y-75474505D01*
X144425000Y-75450001D01*
X144425000Y-74549999D01*
X144426204Y-74525495D01*
X144429804Y-74501227D01*
X144435765Y-74477428D01*
X144444030Y-74454329D01*
X144454520Y-74432150D01*
X144467132Y-74411107D01*
X144481747Y-74391401D01*
X144498223Y-74373223D01*
X144516401Y-74356747D01*
X144536107Y-74342132D01*
X144557150Y-74329520D01*
X144579329Y-74319030D01*
X144602428Y-74310765D01*
X144626227Y-74304804D01*
X144650495Y-74301204D01*
X144674999Y-74300000D01*
X145325001Y-74300000D01*
X145349505Y-74301204D01*
G37*
G04 #@! TD.AperFunction*
G04 #@! TA.AperFunction,SMDPad,CuDef*
G36*
X143299505Y-74301204D02*
G01*
X143323773Y-74304804D01*
X143347572Y-74310765D01*
X143370671Y-74319030D01*
X143392850Y-74329520D01*
X143413893Y-74342132D01*
X143433599Y-74356747D01*
X143451777Y-74373223D01*
X143468253Y-74391401D01*
X143482868Y-74411107D01*
X143495480Y-74432150D01*
X143505970Y-74454329D01*
X143514235Y-74477428D01*
X143520196Y-74501227D01*
X143523796Y-74525495D01*
X143525000Y-74549999D01*
X143525000Y-75450001D01*
X143523796Y-75474505D01*
X143520196Y-75498773D01*
X143514235Y-75522572D01*
X143505970Y-75545671D01*
X143495480Y-75567850D01*
X143482868Y-75588893D01*
X143468253Y-75608599D01*
X143451777Y-75626777D01*
X143433599Y-75643253D01*
X143413893Y-75657868D01*
X143392850Y-75670480D01*
X143370671Y-75680970D01*
X143347572Y-75689235D01*
X143323773Y-75695196D01*
X143299505Y-75698796D01*
X143275001Y-75700000D01*
X142624999Y-75700000D01*
X142600495Y-75698796D01*
X142576227Y-75695196D01*
X142552428Y-75689235D01*
X142529329Y-75680970D01*
X142507150Y-75670480D01*
X142486107Y-75657868D01*
X142466401Y-75643253D01*
X142448223Y-75626777D01*
X142431747Y-75608599D01*
X142417132Y-75588893D01*
X142404520Y-75567850D01*
X142394030Y-75545671D01*
X142385765Y-75522572D01*
X142379804Y-75498773D01*
X142376204Y-75474505D01*
X142375000Y-75450001D01*
X142375000Y-74549999D01*
X142376204Y-74525495D01*
X142379804Y-74501227D01*
X142385765Y-74477428D01*
X142394030Y-74454329D01*
X142404520Y-74432150D01*
X142417132Y-74411107D01*
X142431747Y-74391401D01*
X142448223Y-74373223D01*
X142466401Y-74356747D01*
X142486107Y-74342132D01*
X142507150Y-74329520D01*
X142529329Y-74319030D01*
X142552428Y-74310765D01*
X142576227Y-74304804D01*
X142600495Y-74301204D01*
X142624999Y-74300000D01*
X143275001Y-74300000D01*
X143299505Y-74301204D01*
G37*
G04 #@! TD.AperFunction*
G04 #@! TA.AperFunction,SMDPad,CuDef*
G36*
X126349505Y-74301204D02*
G01*
X126373773Y-74304804D01*
X126397572Y-74310765D01*
X126420671Y-74319030D01*
X126442850Y-74329520D01*
X126463893Y-74342132D01*
X126483599Y-74356747D01*
X126501777Y-74373223D01*
X126518253Y-74391401D01*
X126532868Y-74411107D01*
X126545480Y-74432150D01*
X126555970Y-74454329D01*
X126564235Y-74477428D01*
X126570196Y-74501227D01*
X126573796Y-74525495D01*
X126575000Y-74549999D01*
X126575000Y-75450001D01*
X126573796Y-75474505D01*
X126570196Y-75498773D01*
X126564235Y-75522572D01*
X126555970Y-75545671D01*
X126545480Y-75567850D01*
X126532868Y-75588893D01*
X126518253Y-75608599D01*
X126501777Y-75626777D01*
X126483599Y-75643253D01*
X126463893Y-75657868D01*
X126442850Y-75670480D01*
X126420671Y-75680970D01*
X126397572Y-75689235D01*
X126373773Y-75695196D01*
X126349505Y-75698796D01*
X126325001Y-75700000D01*
X125674999Y-75700000D01*
X125650495Y-75698796D01*
X125626227Y-75695196D01*
X125602428Y-75689235D01*
X125579329Y-75680970D01*
X125557150Y-75670480D01*
X125536107Y-75657868D01*
X125516401Y-75643253D01*
X125498223Y-75626777D01*
X125481747Y-75608599D01*
X125467132Y-75588893D01*
X125454520Y-75567850D01*
X125444030Y-75545671D01*
X125435765Y-75522572D01*
X125429804Y-75498773D01*
X125426204Y-75474505D01*
X125425000Y-75450001D01*
X125425000Y-74549999D01*
X125426204Y-74525495D01*
X125429804Y-74501227D01*
X125435765Y-74477428D01*
X125444030Y-74454329D01*
X125454520Y-74432150D01*
X125467132Y-74411107D01*
X125481747Y-74391401D01*
X125498223Y-74373223D01*
X125516401Y-74356747D01*
X125536107Y-74342132D01*
X125557150Y-74329520D01*
X125579329Y-74319030D01*
X125602428Y-74310765D01*
X125626227Y-74304804D01*
X125650495Y-74301204D01*
X125674999Y-74300000D01*
X126325001Y-74300000D01*
X126349505Y-74301204D01*
G37*
G04 #@! TD.AperFunction*
G04 #@! TA.AperFunction,SMDPad,CuDef*
G36*
X124299505Y-74301204D02*
G01*
X124323773Y-74304804D01*
X124347572Y-74310765D01*
X124370671Y-74319030D01*
X124392850Y-74329520D01*
X124413893Y-74342132D01*
X124433599Y-74356747D01*
X124451777Y-74373223D01*
X124468253Y-74391401D01*
X124482868Y-74411107D01*
X124495480Y-74432150D01*
X124505970Y-74454329D01*
X124514235Y-74477428D01*
X124520196Y-74501227D01*
X124523796Y-74525495D01*
X124525000Y-74549999D01*
X124525000Y-75450001D01*
X124523796Y-75474505D01*
X124520196Y-75498773D01*
X124514235Y-75522572D01*
X124505970Y-75545671D01*
X124495480Y-75567850D01*
X124482868Y-75588893D01*
X124468253Y-75608599D01*
X124451777Y-75626777D01*
X124433599Y-75643253D01*
X124413893Y-75657868D01*
X124392850Y-75670480D01*
X124370671Y-75680970D01*
X124347572Y-75689235D01*
X124323773Y-75695196D01*
X124299505Y-75698796D01*
X124275001Y-75700000D01*
X123624999Y-75700000D01*
X123600495Y-75698796D01*
X123576227Y-75695196D01*
X123552428Y-75689235D01*
X123529329Y-75680970D01*
X123507150Y-75670480D01*
X123486107Y-75657868D01*
X123466401Y-75643253D01*
X123448223Y-75626777D01*
X123431747Y-75608599D01*
X123417132Y-75588893D01*
X123404520Y-75567850D01*
X123394030Y-75545671D01*
X123385765Y-75522572D01*
X123379804Y-75498773D01*
X123376204Y-75474505D01*
X123375000Y-75450001D01*
X123375000Y-74549999D01*
X123376204Y-74525495D01*
X123379804Y-74501227D01*
X123385765Y-74477428D01*
X123394030Y-74454329D01*
X123404520Y-74432150D01*
X123417132Y-74411107D01*
X123431747Y-74391401D01*
X123448223Y-74373223D01*
X123466401Y-74356747D01*
X123486107Y-74342132D01*
X123507150Y-74329520D01*
X123529329Y-74319030D01*
X123552428Y-74310765D01*
X123576227Y-74304804D01*
X123600495Y-74301204D01*
X123624999Y-74300000D01*
X124275001Y-74300000D01*
X124299505Y-74301204D01*
G37*
G04 #@! TD.AperFunction*
D21*
X138500000Y-88000000D03*
X151500000Y-93500000D03*
X145000000Y-77000000D03*
X135000000Y-79000000D03*
X144000000Y-112500000D03*
X142000000Y-92500000D03*
X143500000Y-96000000D03*
D22*
X146000000Y-90377500D02*
X146000000Y-86700000D01*
X144000000Y-91365000D02*
X145012500Y-91365000D01*
X145012500Y-91365000D02*
X146000000Y-90377500D01*
X146000000Y-86700000D02*
X146000000Y-86000000D01*
X159500000Y-78500000D02*
X166000000Y-78500000D01*
X146000000Y-86000000D02*
X152000000Y-86000000D01*
X166000000Y-78500000D02*
X168000000Y-80500000D01*
X152000000Y-86000000D02*
X159500000Y-78500000D01*
X118350000Y-79750000D02*
X123100000Y-75000000D01*
X117500000Y-79750000D02*
X118350000Y-79750000D01*
X123100000Y-75000000D02*
X124000000Y-75000000D01*
X134000000Y-78000000D02*
X135000000Y-79000000D01*
X134000000Y-75000000D02*
X134000000Y-78000000D01*
X135025000Y-78975000D02*
X135000000Y-79000000D01*
X140000000Y-78975000D02*
X135025000Y-78975000D01*
X145000000Y-75000000D02*
X145000000Y-77000000D01*
X145050000Y-77050000D02*
X145000000Y-77000000D01*
X145050000Y-78600000D02*
X145050000Y-77050000D01*
X151050000Y-93050000D02*
X151500000Y-93500000D01*
X151050000Y-91000000D02*
X151050000Y-93050000D01*
X151025000Y-93975000D02*
X151500000Y-93500000D01*
X151025000Y-96000000D02*
X151025000Y-93975000D01*
X138576000Y-88076000D02*
X138500000Y-88000000D01*
X138576000Y-90095000D02*
X138576000Y-88076000D01*
D23*
X115000000Y-74250000D02*
X115000000Y-80000000D01*
X115000000Y-81250000D02*
X112250000Y-84000000D01*
X115000000Y-79750000D02*
X115000000Y-81250000D01*
X112250000Y-84000000D02*
X96500000Y-84000000D01*
X96500000Y-84000000D02*
X94000000Y-86500000D01*
X94000000Y-86500000D02*
X94000000Y-103000000D01*
X94000000Y-103000000D02*
X102000000Y-111000000D01*
X118350000Y-74250000D02*
X119600000Y-73000000D01*
X117500000Y-74250000D02*
X118350000Y-74250000D01*
X119600000Y-73000000D02*
X141000000Y-73000000D01*
X141000000Y-73000000D02*
X143000000Y-75000000D01*
X143000000Y-75000000D02*
X143000000Y-77500000D01*
X143000000Y-77500000D02*
X144000000Y-78500000D01*
D22*
X144000000Y-78500000D02*
X144000000Y-78885002D01*
X144000000Y-78885002D02*
X144000000Y-79500000D01*
X144000000Y-79500000D02*
X144500000Y-80000000D01*
X144500000Y-80000000D02*
X145500000Y-80000000D01*
X145500000Y-80000000D02*
X146000000Y-79500000D01*
X146000000Y-79500000D02*
X146000000Y-78500000D01*
X146000000Y-78500000D02*
X149500000Y-78500000D01*
X149500000Y-78500000D02*
X151000000Y-77000000D01*
X126000000Y-75000000D02*
X131000000Y-75000000D01*
X146000000Y-81400000D02*
X150900000Y-81400000D01*
X138576000Y-91365000D02*
X140865000Y-91365000D01*
X140865000Y-91365000D02*
X142000000Y-92500000D01*
X142000000Y-92500000D02*
X144000000Y-92500000D01*
X148200000Y-92500000D02*
X149000000Y-91700000D01*
X144000000Y-92500000D02*
X148200000Y-92500000D01*
X149000000Y-91700000D02*
X149000000Y-91000000D01*
X142000000Y-92500000D02*
X142000000Y-92500000D01*
X166000000Y-124000000D02*
X160000000Y-124000000D01*
X124000000Y-124000000D02*
X130000000Y-124000000D01*
X155000000Y-116000000D02*
X155000000Y-116875000D01*
X155000000Y-116875000D02*
X155000000Y-121000000D01*
X155000000Y-121000000D02*
X152000000Y-124000000D01*
X155000000Y-121000000D02*
X158000000Y-124000000D01*
X158000000Y-124000000D02*
X160000000Y-124000000D01*
X152000000Y-124000000D02*
X150000000Y-124000000D01*
X145000000Y-116875000D02*
X145000000Y-121000000D01*
X148000000Y-124000000D02*
X150000000Y-124000000D01*
X145000000Y-116000000D02*
X145000000Y-116875000D01*
X145000000Y-121000000D02*
X148000000Y-124000000D01*
X145000000Y-121000000D02*
X142000000Y-124000000D01*
X142000000Y-124000000D02*
X140000000Y-124000000D01*
X135000000Y-116875000D02*
X135000000Y-121000000D01*
X138000000Y-124000000D02*
X140000000Y-124000000D01*
X135000000Y-116000000D02*
X135000000Y-116875000D01*
X135000000Y-121000000D02*
X138000000Y-124000000D01*
X135000000Y-121000000D02*
X132000000Y-124000000D01*
X132000000Y-124000000D02*
X130000000Y-124000000D01*
X122000000Y-124000000D02*
X124000000Y-124000000D01*
X119000000Y-121000000D02*
X122000000Y-124000000D01*
X119000000Y-116000000D02*
X119000000Y-116875000D01*
X116000000Y-124000000D02*
X114000000Y-124000000D01*
X119000000Y-116875000D02*
X119000000Y-121000000D01*
X119000000Y-121000000D02*
X116000000Y-124000000D01*
X109000000Y-116875000D02*
X109000000Y-121000000D01*
X109000000Y-121000000D02*
X112000000Y-124000000D01*
X106000000Y-124000000D02*
X104000000Y-124000000D01*
X109000000Y-121000000D02*
X106000000Y-124000000D01*
X109000000Y-116000000D02*
X109000000Y-116875000D01*
X112000000Y-124000000D02*
X114000000Y-124000000D01*
X144000000Y-112500000D02*
X144000000Y-115000000D01*
X144000000Y-115000000D02*
X145000000Y-116000000D01*
X144000000Y-94480000D02*
X145520000Y-96000000D01*
X144000000Y-93905000D02*
X144000000Y-94480000D01*
X145520000Y-96000000D02*
X149000000Y-96000000D01*
X114400000Y-88000000D02*
X97000000Y-88000000D01*
X138576000Y-92635000D02*
X140365000Y-92635000D01*
X140365000Y-92635000D02*
X140500000Y-92770000D01*
X140500000Y-92770000D02*
X140500000Y-93653502D01*
X140500000Y-93653502D02*
X140500000Y-94500000D01*
X140500000Y-94500000D02*
X140500000Y-95000000D01*
X140500000Y-95000000D02*
X140000000Y-95500000D01*
X140000000Y-95500000D02*
X125500000Y-95500000D01*
X125500000Y-95500000D02*
X118000000Y-88000000D01*
X140500000Y-95000000D02*
X141500000Y-96000000D01*
X141500000Y-96000000D02*
X143500000Y-96000000D01*
X137563500Y-93905000D02*
X137158500Y-93500000D01*
X138576000Y-93905000D02*
X137563500Y-93905000D01*
X137158500Y-93500000D02*
X137158500Y-83841500D01*
X137158500Y-83841500D02*
X139500000Y-81500000D01*
X139500000Y-81500000D02*
X144000000Y-81500000D01*
X144000000Y-81500000D02*
X144000000Y-86000000D01*
X144000000Y-86000000D02*
X144000000Y-90000000D01*
X144100000Y-81400000D02*
X144100000Y-81600000D01*
D23*
X144100000Y-81600000D02*
X146000000Y-83500000D01*
X146000000Y-83500000D02*
X153000000Y-83500000D01*
X153000000Y-83500000D02*
X159500000Y-77000000D01*
D22*
X159500000Y-77000000D02*
X159625276Y-77000000D01*
D23*
X159625276Y-77000000D02*
X161500000Y-77000000D01*
X161500000Y-77000000D02*
X165000000Y-73500000D01*
D22*
X160950000Y-103000000D02*
X160375000Y-103000000D01*
X160375000Y-103000000D02*
X158000000Y-103000000D01*
X160950000Y-103000000D02*
X160950000Y-115050000D01*
X160950000Y-115050000D02*
X160000000Y-116000000D01*
X163000000Y-103000000D02*
X163000000Y-113000000D01*
X163000000Y-113000000D02*
X166000000Y-116000000D01*
X163200000Y-80500000D02*
X165500000Y-80500000D01*
X165500000Y-101075000D02*
X163575000Y-103000000D01*
X165500000Y-80500000D02*
X165500000Y-101075000D01*
X163575000Y-103000000D02*
X163000000Y-103000000D01*
X155950000Y-103000000D02*
X153000000Y-103000000D01*
X155950000Y-103000000D02*
X155950000Y-107050000D01*
X155950000Y-107050000D02*
X155000000Y-108000000D01*
X150950000Y-103000000D02*
X148000000Y-103000000D01*
X150950000Y-103700000D02*
X150000000Y-104650000D01*
X150950000Y-103000000D02*
X150950000Y-103700000D01*
X150000000Y-104650000D02*
X150000000Y-116000000D01*
X145950000Y-103000000D02*
X143000000Y-103000000D01*
X145950000Y-103000000D02*
X145950000Y-107050000D01*
X145950000Y-107050000D02*
X145000000Y-108000000D01*
X141000000Y-103000000D02*
X138000000Y-103000000D01*
X141000000Y-103000000D02*
X141000000Y-115000000D01*
X141000000Y-115000000D02*
X140000000Y-116000000D01*
X135950000Y-103000000D02*
X133000000Y-103000000D01*
X135950000Y-103000000D02*
X135950000Y-107050000D01*
X135950000Y-107050000D02*
X135000000Y-108000000D01*
X131000000Y-103000000D02*
X128000000Y-103000000D01*
X131000000Y-103700000D02*
X132800000Y-105500000D01*
X131000000Y-103000000D02*
X131000000Y-103700000D01*
X132800000Y-105500000D02*
X132800000Y-113200000D01*
X132800000Y-113200000D02*
X130000000Y-116000000D01*
X125950000Y-103000000D02*
X123000000Y-103000000D01*
X123050000Y-103000000D02*
X123050000Y-115050000D01*
X123050000Y-115050000D02*
X124000000Y-116000000D01*
X121000000Y-103000000D02*
X118000000Y-103000000D01*
X118050000Y-103000000D02*
X118050000Y-107050000D01*
X118050000Y-107050000D02*
X119000000Y-108000000D01*
X116000000Y-103000000D02*
X113000000Y-103000000D01*
X113050000Y-103000000D02*
X113050000Y-115050000D01*
X113050000Y-115050000D02*
X114000000Y-116000000D01*
X111000000Y-103000000D02*
X108000000Y-103000000D01*
X108000000Y-103000000D02*
X108000000Y-107000000D01*
X108000000Y-107000000D02*
X109000000Y-108000000D01*
X105950000Y-103000000D02*
X105950000Y-114050000D01*
X105950000Y-114050000D02*
X104000000Y-116000000D01*
D24*
G36*
X100373000Y-105123000D02*
G01*
X89627000Y-105123000D01*
X89627000Y-96877000D01*
X100373000Y-96877000D01*
X100373000Y-105123000D01*
G37*
X100373000Y-105123000D02*
X89627000Y-105123000D01*
X89627000Y-96877000D01*
X100373000Y-96877000D01*
X100373000Y-105123000D01*
G36*
X144858832Y-101123000D02*
G01*
X114112832Y-101123000D01*
X114112832Y-97877000D01*
X144858832Y-97877000D01*
X144858832Y-101123000D01*
G37*
X144858832Y-101123000D02*
X114112832Y-101123000D01*
X114112832Y-97877000D01*
X144858832Y-97877000D01*
X144858832Y-101123000D01*
M02*
